<?xml version="1.0" encoding="utf-8"?>
<!-- Generator: Adobe Illustrator 24.0.2, SVG Export Plug-In . SVG Version: 6.00 Build 0)  -->
<svg version="1.1" id="Layer_1" xmlns="http://www.w3.org/2000/svg" xmlns:xlink="http://www.w3.org/1999/xlink" x="0px" y="0px"
	 viewBox="0 0 63.25 11.81" style="enable-background:new 0 0 63.25 11.81;" xml:space="preserve">
<style type="text/css">
	.st0{fill:#575756;}
	.st1{fill:#E30613;}
</style>
<g>
	<g>
		<g>
			<path class="st0" d="M4.27,0.01h3.49l4.22,11.59h-3.7L7.79,9.94H4.11L3.59,11.6H0L4.27,0.01z M7.08,7.46L6.04,3.89H6.01
				L4.89,7.46H7.08z"/>
			<path class="st0" d="M17.39,11.6h-3.8l-2.76-8.43h3.39l1.32,5.13h0.03l1.33-5.13h3.28L17.39,11.6z"/>
			<path class="st0" d="M23.61,2.26H20.4V0.01h3.21V2.26z M20.4,3.17h3.21v8.43H20.4V3.17z"/>
			<path class="st0" d="M33.09,9.72c0,0.63,0.03,1.35,0.39,1.88H30.2c-0.08-0.23-0.13-0.57-0.11-0.79h-0.03
				c-0.68,0.78-1.67,1.01-2.71,1.01c-1.62,0-2.97-0.78-2.97-2.55c0-2.66,3.12-2.57,4.76-2.87c0.44-0.08,0.88-0.21,0.88-0.75
				c0-0.57-0.54-0.78-1.05-0.78c-0.99,0-1.19,0.5-1.2,0.86h-2.99c0.05-1.19,0.63-1.88,1.46-2.27c0.81-0.39,1.88-0.49,2.87-0.49
				c4.03,0,3.99,1.67,3.99,3.3V9.72z M30.01,7.82c-0.39,0.19-0.83,0.31-1.27,0.41c-0.71,0.16-1.09,0.34-1.09,0.91
				c0,0.39,0.42,0.78,1.01,0.78c0.73,0,1.3-0.44,1.35-1.31V7.82z"/>
			<path class="st0" d="M38.1,3.17h1.72v1.98H38.1v2.94c0,0.78,0.18,1.12,0.99,1.12c0.24,0,0.49-0.02,0.73-0.05v2.44
				c-0.65,0-1.38,0.1-2.06,0.1c-1.36,0-2.87-0.21-2.87-2.52V5.15h-1.43V3.17h1.43V0.61h3.21V3.17z"/>
			<path class="st0" d="M43.55,2.26h-3.21V0.01h3.21V2.26z M40.34,3.17h3.21v8.43h-3.21V3.17z"/>
			<path class="st0" d="M49.06,11.81c-3.17,0-4.59-2.09-4.59-4.43s1.43-4.42,4.59-4.42s4.59,2.08,4.59,4.42S52.22,11.81,49.06,11.81
				z M49.06,5.3c-1.22,0-1.38,1.18-1.38,2.08c0,0.89,0.16,2.09,1.38,2.09s1.38-1.2,1.38-2.09C50.44,6.49,50.27,5.3,49.06,5.3z"/>
			<path class="st0" d="M54.48,3.17h3.1v1.07h0.03c0.6-0.84,1.46-1.28,2.74-1.28c1.51,0,2.89,0.92,2.89,2.86v5.78h-3.21V7.18
				c0-0.97-0.11-1.66-1.06-1.66c-0.55,0-1.28,0.28-1.28,1.62v4.45h-3.21V3.17z"/>
		</g>
	</g>
	<rect x="20.39" class="st1" width="3.21" height="2.26"/>
	<rect x="40.33" class="st1" width="3.21" height="2.26"/>
</g>
</svg>
