<?xml version="1.0" encoding="utf-8"?>
<!-- Generator: Adobe Illustrator 24.0.2, SVG Export Plug-In . SVG Version: 6.00 Build 0)  -->
<svg version="1.1" id="Layer_1" xmlns="http://www.w3.org/2000/svg" xmlns:xlink="http://www.w3.org/1999/xlink" x="0px" y="0px"
	 viewBox="0 0 71.71 25.29" style="enable-background:new 0 0 71.71 25.29;" xml:space="preserve">
<style type="text/css">
	.st0{fill:#575756;}
	.st1{fill:#E30613;}
</style>
<g>
	<g>
		<g>
			<path class="st0" d="M3.57,21.11c0,0.29,0.05,0.55,0.13,0.76c0.26,0.7,1.04,0.84,1.71,0.84c0.58,0,1.48-0.2,1.48-1.06
				c0-0.6-0.5-0.76-2.5-1.33c-1.83-0.52-3.93-1.02-3.93-3.36c0-2.68,2.29-3.83,4.68-3.83c2.52,0,4.74,0.96,4.84,3.78H6.59
				c0.07-0.44-0.13-0.73-0.42-0.93c-0.29-0.21-0.7-0.29-1.06-0.29c-0.49,0-1.28,0.13-1.28,0.78c0.06,0.83,1.72,1.01,3.36,1.46
				c1.64,0.45,3.26,1.22,3.26,3.34c0,3.02-2.78,3.99-5.36,3.99c-1.32,0-5.07-0.47-5.1-4.17H3.57z"/>
			<path class="st0" d="M15.18,25.22c-3.17,0-4.59-2.09-4.59-4.43s1.43-4.42,4.59-4.42s4.59,2.08,4.59,4.42S18.35,25.22,15.18,25.22
				z M15.18,18.71c-1.22,0-1.38,1.19-1.38,2.08c0,0.89,0.16,2.09,1.38,2.09s1.38-1.2,1.38-2.09C16.56,19.9,16.4,18.71,15.18,18.71z"
				/>
			<path class="st0" d="M20.35,13.42h3.21v11.59h-3.21V13.42z"/>
			<path class="st0" d="M33.27,25.01h-3.1v-1.07h-0.03c-0.6,0.84-1.46,1.28-2.74,1.28c-1.51,0-2.89-0.93-2.89-2.86v-5.78h3.21V21
				c0,0.97,0.11,1.66,1.06,1.66c0.55,0,1.28-0.28,1.28-1.62v-4.45h3.21V25.01z"/>
			<path class="st0" d="M38.32,16.58h1.72v1.98h-1.72v2.94c0,0.78,0.18,1.12,0.99,1.12c0.24,0,0.49-0.02,0.73-0.05v2.44
				c-0.65,0-1.38,0.1-2.06,0.1c-1.36,0-2.87-0.21-2.87-2.52v-4.03h-1.43v-1.98h1.43v-2.56h3.21V16.58z"/>
			<path class="st0" d="M43.78,15.67h-3.21v-2.26h3.21V15.67z M40.56,16.58h3.21v8.43h-3.21V16.58z"/>
			<path class="st0" d="M48.96,25.22c-3.17,0-4.59-2.09-4.59-4.43s1.43-4.42,4.59-4.42s4.59,2.08,4.59,4.42S52.12,25.22,48.96,25.22
				z M48.96,18.71c-1.22,0-1.38,1.19-1.38,2.08c0,0.89,0.16,2.09,1.38,2.09s1.38-1.2,1.38-2.09C50.34,19.9,50.18,18.71,48.96,18.71z
				"/>
			<path class="st0" d="M54.06,16.58h3.1v1.07h0.03c0.6-0.84,1.46-1.28,2.74-1.28c1.51,0,2.89,0.93,2.89,2.86v5.78h-3.21v-4.42
				c0-0.97-0.11-1.66-1.05-1.66c-0.55,0-1.28,0.28-1.28,1.62v4.45h-3.21V16.58z"/>
			<path class="st0" d="M68.56,19.04c-0.02-0.28-0.16-0.49-0.37-0.63c-0.2-0.16-0.46-0.24-0.71-0.24c-0.45,0-0.97,0.1-0.97,0.65
				c0,0.24,0.19,0.36,0.37,0.44c0.54,0.23,1.75,0.29,2.83,0.65c1.07,0.34,2.01,0.97,2.01,2.35c0,2.34-2.24,2.97-4.29,2.97
				c-1.98,0-4.16-0.8-4.2-2.97h3.07c0.02,0.29,0.15,0.54,0.39,0.75c0.16,0.15,0.47,0.24,0.86,0.24c0.42,0,1.09-0.16,1.09-0.65
				c0-0.49-0.28-0.63-1.77-0.89c-2.45-0.42-3.44-1.2-3.44-2.65c0-2.13,2.29-2.68,3.98-2.68c1.82,0,4.01,0.5,4.09,2.66H68.56z"/>
		</g>
		<g>
			<g>
				<path class="st0" d="M16.98,0.28h9.59v2.97h-6.02v1.45h5.47v2.76h-5.47V8.9h6.2v2.97h-9.77V0.28z"/>
				<path class="st0" d="M40.98,4.59c-0.07-0.42-0.39-1.7-1.87-1.7c-1.67,0-2.21,1.62-2.21,3.18s0.54,3.18,2.21,3.18
					c1.2,0,1.67-0.84,1.88-1.93h3.51c0,2.34-1.9,4.82-5.29,4.82c-3.75,0-5.88-2.65-5.88-6.07c0-3.65,2.3-6.07,5.88-6.07
					c3.18,0.02,4.94,1.69,5.24,4.59H40.98z"/>
				<path class="st0" d="M50.97,0c3.52,0,5.88,2.53,5.88,6.07s-2.35,6.07-5.88,6.07c-3.52,0-5.88-2.53-5.88-6.07S47.44,0,50.97,0z
					 M50.97,9.25c0.91,0,2.31-0.6,2.31-3.18c0-2.58-1.4-3.18-2.31-3.18s-2.31,0.6-2.31,3.18C48.66,8.65,50.06,9.25,50.97,9.25z"/>
				<path class="st0" d="M57.77,0.28h5.08l1.66,6.82h0.03l1.66-6.82h5.08v11.59H67.9V4.43h-0.03l-2.01,7.44h-2.66l-2.01-7.44h-0.03
					v7.44h-3.38V0.28z"/>
			</g>
		</g>
	</g>
	<rect x="27.85" y="4.69" class="st1" width="4.13" height="2.76"/>
	<rect x="40.54" y="13.42" class="st1" width="3.21" height="2.26"/>
</g>
</svg>
