<?xml version="1.0" encoding="utf-8"?>
<!-- Generator: Adobe Illustrator 24.0.2, SVG Export Plug-In . SVG Version: 6.00 Build 0)  -->
<svg version="1.1" id="Layer_1" xmlns="http://www.w3.org/2000/svg" xmlns:xlink="http://www.w3.org/1999/xlink" x="0px" y="0px"
	 viewBox="0 0 39.26 16.42" style="enable-background:new 0 0 39.26 16.42;" xml:space="preserve">
<style type="text/css">
	.st0{fill:#575756;}
	.st1{fill:#E30613;}
</style>
<g>
	<g>
		<g>
			<path class="st0" d="M0,0.28h5.08l1.66,6.82h0.03l1.66-6.82h5.08v11.59h-3.38V4.43H10.1l-2.01,7.44H5.42L3.41,4.43H3.38v7.44H0
				V0.28z"/>
			<path class="st0" d="M14.76,0.28h5.08l1.66,6.82h0.03l1.66-6.82h5.08v11.59h-3.38V4.43h-0.03l-2.01,7.44h-2.66l-2.01-7.44h-0.03
				v7.44h-3.38V0.28z"/>
			<path class="st0" d="M32.38,7.97c0,0.29,0.05,0.55,0.13,0.76c0.26,0.7,1.04,0.84,1.71,0.84c0.58,0,1.48-0.19,1.48-1.06
				c0-0.6-0.5-0.76-2.5-1.33c-1.83-0.52-3.93-1.02-3.93-3.36c0-2.68,2.29-3.83,4.68-3.83c2.52,0,4.74,0.96,4.84,3.78H35.4
				c0.07-0.44-0.13-0.73-0.42-0.93c-0.29-0.21-0.7-0.29-1.06-0.29c-0.49,0-1.28,0.13-1.28,0.78C32.7,4.17,34.36,4.35,36,4.81
				c1.64,0.46,3.26,1.22,3.26,3.34c0,3.02-2.78,3.99-5.36,3.99c-1.32,0-5.07-0.47-5.1-4.17H32.38z"/>
		</g>
	</g>
	<g>
		<g>
			<g>
				<path d="M0.19,13.96h0.28v0.25h0.01c0.06-0.09,0.21-0.29,0.52-0.29c0.31,0,0.41,0.19,0.46,0.28c0.15-0.16,0.26-0.28,0.53-0.28
					c0.19,0,0.54,0.1,0.54,0.58v1.2H2.23v-1.12c0-0.24-0.07-0.4-0.32-0.4c-0.25,0-0.41,0.23-0.41,0.46v1.06H1.21v-1.2
					c0-0.15-0.06-0.32-0.27-0.32c-0.17,0-0.46,0.11-0.46,0.58v0.94H0.19V13.96z"/>
				<path d="M2.9,14.49c0.01-0.41,0.29-0.58,0.72-0.58c0.14,0,0.64,0.04,0.64,0.48v1c0,0.07,0.04,0.1,0.1,0.1
					c0.03,0,0.06-0.01,0.1-0.01v0.21c-0.05,0.01-0.09,0.03-0.16,0.03c-0.26,0-0.3-0.13-0.31-0.26c-0.11,0.12-0.29,0.28-0.63,0.28
					c-0.32,0-0.54-0.2-0.54-0.5c0-0.15,0.04-0.48,0.53-0.54l0.48-0.06c0.07-0.01,0.15-0.03,0.15-0.21c0-0.18-0.13-0.28-0.41-0.28
					c-0.33,0-0.38,0.2-0.4,0.33H2.9z M3.96,14.81c-0.05,0.04-0.12,0.06-0.48,0.11c-0.14,0.02-0.37,0.06-0.37,0.28
					c0,0.19,0.1,0.3,0.31,0.3c0.27,0,0.54-0.17,0.54-0.41V14.81z"/>
				<path d="M4.72,13.65v-0.33h0.29v0.33H4.72z M5.01,15.69H4.72v-1.73h0.29V15.69z"/>
				<path d="M5.71,15.69H5.42v-2.38h0.29V15.69z"/>
				<path d="M7,13.96h0.28v0.25h0.01c0.06-0.09,0.21-0.29,0.52-0.29c0.31,0,0.41,0.19,0.46,0.28c0.15-0.16,0.26-0.28,0.53-0.28
					c0.19,0,0.54,0.1,0.54,0.58v1.2H9.04v-1.12c0-0.24-0.07-0.4-0.32-0.4c-0.25,0-0.41,0.23-0.41,0.46v1.06H8.02v-1.2
					c0-0.15-0.06-0.32-0.27-0.32c-0.17,0-0.46,0.11-0.46,0.58v0.94H7V13.96z"/>
				<path d="M9.71,14.49c0.01-0.41,0.29-0.58,0.72-0.58c0.14,0,0.64,0.04,0.64,0.48v1c0,0.07,0.04,0.1,0.1,0.1
					c0.03,0,0.06-0.01,0.1-0.01v0.21c-0.05,0.01-0.09,0.03-0.16,0.03c-0.26,0-0.3-0.13-0.31-0.26c-0.11,0.12-0.29,0.28-0.63,0.28
					c-0.32,0-0.54-0.2-0.54-0.5c0-0.15,0.04-0.48,0.53-0.54l0.48-0.06c0.07-0.01,0.15-0.03,0.15-0.21c0-0.18-0.13-0.28-0.41-0.28
					c-0.33,0-0.38,0.2-0.4,0.33H9.71z M10.77,14.81c-0.05,0.04-0.12,0.06-0.48,0.11c-0.14,0.02-0.37,0.06-0.37,0.28
					c0,0.19,0.1,0.3,0.31,0.3c0.27,0,0.54-0.17,0.54-0.41V14.81z"/>
				<path d="M12.93,15.69h-0.29v-1.07c0-0.3-0.09-0.45-0.37-0.45c-0.17,0-0.46,0.11-0.46,0.58v0.94h-0.29v-1.73h0.28v0.25h0.01
					c0.06-0.09,0.22-0.29,0.52-0.29c0.27,0,0.61,0.11,0.61,0.6V15.69z"/>
				<path d="M13.31,14.49c0.01-0.41,0.29-0.58,0.72-0.58c0.14,0,0.64,0.04,0.64,0.48v1c0,0.07,0.04,0.1,0.1,0.1
					c0.03,0,0.06-0.01,0.1-0.01v0.21c-0.05,0.01-0.09,0.03-0.16,0.03c-0.26,0-0.3-0.13-0.31-0.26c-0.11,0.12-0.29,0.28-0.63,0.28
					c-0.32,0-0.54-0.2-0.54-0.5c0-0.15,0.04-0.48,0.53-0.54l0.48-0.06c0.07-0.01,0.15-0.03,0.15-0.21c0-0.18-0.13-0.28-0.41-0.28
					c-0.33,0-0.38,0.2-0.4,0.33H13.31z M14.38,14.81c-0.05,0.04-0.12,0.06-0.48,0.11c-0.14,0.02-0.37,0.06-0.37,0.28
					c0,0.19,0.1,0.3,0.31,0.3c0.27,0,0.54-0.17,0.54-0.41V14.81z"/>
				<path d="M16.57,15.55c0,0.25,0,0.87-0.8,0.87c-0.21,0-0.61-0.06-0.66-0.52h0.29c0.05,0.27,0.32,0.27,0.39,0.27
					c0.5,0,0.49-0.4,0.49-0.61V15.5h-0.01v0.01c-0.08,0.12-0.23,0.23-0.46,0.23c-0.59,0-0.76-0.55-0.76-0.97
					c0-0.49,0.26-0.86,0.72-0.86c0.31,0,0.45,0.2,0.52,0.29h0.01v-0.25h0.28V15.55z M15.81,15.49c0.19,0,0.47-0.12,0.47-0.58
					c0-0.28-0.05-0.73-0.47-0.73c-0.45,0-0.47,0.43-0.47,0.65C15.35,15.2,15.5,15.49,15.81,15.49z"/>
				<path d="M18.4,15.15c-0.01,0.08-0.09,0.33-0.31,0.47c-0.08,0.05-0.19,0.12-0.47,0.12c-0.49,0-0.77-0.37-0.77-0.87
					c0-0.54,0.26-0.96,0.83-0.96c0.5,0,0.75,0.4,0.75,1.01h-1.27c0,0.36,0.17,0.57,0.5,0.57c0.27,0,0.44-0.21,0.45-0.34H18.4z
					 M18.12,14.69c-0.02-0.27-0.13-0.52-0.48-0.52c-0.27,0-0.48,0.25-0.48,0.52H18.12z"/>
				<path d="M18.74,13.96h0.28v0.25h0.01c0.06-0.09,0.21-0.29,0.52-0.29c0.31,0,0.41,0.19,0.46,0.28c0.15-0.16,0.26-0.28,0.53-0.28
					c0.19,0,0.54,0.1,0.54,0.58v1.2h-0.29v-1.12c0-0.24-0.07-0.4-0.32-0.4c-0.25,0-0.41,0.23-0.41,0.46v1.06h-0.29v-1.2
					c0-0.15-0.06-0.32-0.27-0.32c-0.17,0-0.46,0.11-0.46,0.58v0.94h-0.29V13.96z"/>
				<path d="M22.93,15.15c-0.01,0.08-0.09,0.33-0.31,0.47c-0.08,0.05-0.19,0.12-0.47,0.12c-0.49,0-0.77-0.37-0.77-0.87
					c0-0.54,0.26-0.96,0.83-0.96c0.5,0,0.75,0.4,0.75,1.01h-1.27c0,0.36,0.17,0.57,0.5,0.57c0.27,0,0.44-0.21,0.45-0.34H22.93z
					 M22.65,14.69c-0.02-0.27-0.13-0.52-0.48-0.52c-0.27,0-0.48,0.25-0.48,0.52H22.65z"/>
				<path d="M24.67,15.69h-0.29v-1.07c0-0.3-0.09-0.45-0.37-0.45c-0.17,0-0.46,0.11-0.46,0.58v0.94h-0.29v-1.73h0.28v0.25h0.01
					c0.06-0.09,0.22-0.29,0.52-0.29c0.27,0,0.61,0.11,0.61,0.6V15.69z"/>
				<path d="M25.42,14.2v1.13c0,0.14,0.12,0.14,0.17,0.14h0.1v0.23c-0.11,0.01-0.19,0.02-0.22,0.02c-0.29,0-0.35-0.16-0.35-0.37
					V14.2h-0.24v-0.24h0.24v-0.48h0.29v0.48h0.28v0.24H25.42z"/>
				<path d="M27.82,14.45c0-0.11-0.04-0.29-0.41-0.29c-0.09,0-0.34,0.03-0.34,0.24c0,0.14,0.09,0.18,0.31,0.23l0.29,0.07
					c0.36,0.09,0.49,0.22,0.49,0.46c0,0.36-0.29,0.57-0.69,0.57c-0.68,0-0.73-0.4-0.75-0.61h0.28c0.01,0.14,0.05,0.35,0.46,0.35
					c0.21,0,0.4-0.08,0.4-0.27c0-0.14-0.1-0.19-0.34-0.25l-0.34-0.08c-0.24-0.06-0.4-0.18-0.4-0.42c0-0.38,0.31-0.55,0.66-0.55
					c0.62,0,0.66,0.46,0.66,0.54H27.82z"/>
				<path d="M29.92,15.15c-0.01,0.08-0.09,0.33-0.31,0.47c-0.08,0.05-0.19,0.12-0.47,0.12c-0.49,0-0.77-0.37-0.77-0.87
					c0-0.54,0.26-0.96,0.83-0.96c0.5,0,0.75,0.4,0.75,1.01h-1.27c0,0.36,0.17,0.57,0.5,0.57c0.27,0,0.44-0.21,0.45-0.34H29.92z
					 M29.64,14.69c-0.02-0.27-0.13-0.52-0.48-0.52c-0.27,0-0.48,0.25-0.48,0.52H29.64z"/>
				<path d="M30.59,15.69H30.3v-1.73h0.28v0.29h0.01c0.12-0.2,0.27-0.34,0.49-0.34c0.04,0,0.05,0,0.08,0.01v0.3h-0.11
					c-0.27,0-0.44,0.21-0.44,0.46V15.69z"/>
				<path d="M32.52,13.96h0.32l-0.66,1.73h-0.31l-0.63-1.73h0.34l0.45,1.41h0.01L32.52,13.96z"/>
				<path d="M33.05,13.65v-0.33h0.29v0.33H33.05z M33.34,15.69h-0.29v-1.73h0.29V15.69z"/>
				<path d="M34.82,14.54c-0.04-0.23-0.17-0.37-0.41-0.37c-0.36,0-0.48,0.34-0.48,0.65c0,0.3,0.07,0.67,0.47,0.67
					c0.2,0,0.36-0.15,0.41-0.41h0.28c-0.03,0.27-0.2,0.66-0.71,0.66c-0.49,0-0.77-0.37-0.77-0.87c0-0.54,0.26-0.96,0.83-0.96
					c0.45,0,0.63,0.33,0.65,0.63H34.82z"/>
				<path d="M36.83,15.15c-0.01,0.08-0.09,0.33-0.31,0.47c-0.08,0.05-0.19,0.12-0.47,0.12c-0.49,0-0.77-0.37-0.77-0.87
					c0-0.54,0.26-0.96,0.83-0.96c0.5,0,0.75,0.4,0.75,1.01h-1.27c0,0.36,0.17,0.57,0.5,0.57c0.27,0,0.44-0.21,0.45-0.34H36.83z
					 M36.55,14.69c-0.02-0.27-0.13-0.52-0.48-0.52c-0.27,0-0.48,0.25-0.48,0.52H36.55z"/>
				<path d="M38.15,14.45c0-0.11-0.04-0.29-0.41-0.29c-0.09,0-0.34,0.03-0.34,0.24c0,0.14,0.09,0.18,0.31,0.23L38,14.71
					c0.36,0.09,0.49,0.22,0.49,0.46c0,0.36-0.29,0.57-0.69,0.57c-0.68,0-0.73-0.4-0.74-0.61h0.28c0.01,0.14,0.05,0.35,0.46,0.35
					c0.21,0,0.4-0.08,0.4-0.27c0-0.14-0.1-0.19-0.34-0.25l-0.34-0.08c-0.24-0.06-0.4-0.18-0.4-0.42c0-0.38,0.31-0.55,0.66-0.55
					c0.62,0,0.66,0.46,0.66,0.54H38.15z"/>
			</g>
		</g>
	</g>
	<rect x="24.89" y="9.61" class="st1" width="3.37" height="2.26"/>
</g>
</svg>
