<?xml version="1.0" encoding="utf-8"?>
<!-- Generator: Adobe Illustrator 24.0.2, SVG Export Plug-In . SVG Version: 6.00 Build 0)  -->
<svg version="1.1" id="Layer_1" xmlns="http://www.w3.org/2000/svg" xmlns:xlink="http://www.w3.org/1999/xlink" x="0px" y="0px"
	 viewBox="0 0 74.34 11.15" style="enable-background:new 0 0 74.34 11.15;" xml:space="preserve">
<style type="text/css">
	.st0{fill:#575756;}
	.st1{fill:#E30613;}
</style>
<g>
	<g>
		<path class="st0" d="M7.04,10.95H3.27L0,0h3.41l1.8,6.64h0.03L7,0h3.47L7.04,10.95z"/>
		<path class="st0" d="M13.59,2.13h-3.04V0h3.04V2.13z M10.55,2.99h3.04v7.96h-3.04V2.99z"/>
		<path class="st0" d="M19.39,5.31c-0.02-0.26-0.15-0.46-0.35-0.6c-0.18-0.15-0.43-0.23-0.67-0.23c-0.43,0-0.92,0.09-0.92,0.61
			c0,0.23,0.18,0.34,0.35,0.41c0.51,0.21,1.66,0.28,2.67,0.61c1.01,0.32,1.9,0.92,1.9,2.22c0,2.21-2.12,2.81-4.05,2.81
			c-1.87,0-3.93-0.75-3.97-2.81h2.9c0.02,0.28,0.14,0.51,0.37,0.71c0.15,0.14,0.44,0.23,0.81,0.23c0.4,0,1.03-0.15,1.03-0.61
			c0-0.46-0.26-0.6-1.67-0.84c-2.32-0.4-3.25-1.14-3.25-2.5c0-2.01,2.16-2.53,3.76-2.53c1.72,0,3.79,0.48,3.87,2.52H19.39z"/>
		<path class="st0" d="M30.82,9.17c0,0.6,0.03,1.27,0.37,1.78h-3.1c-0.08-0.21-0.12-0.54-0.11-0.75h-0.03
			c-0.64,0.74-1.58,0.95-2.56,0.95c-1.53,0-2.81-0.74-2.81-2.41c0-2.52,2.95-2.42,4.5-2.72c0.41-0.08,0.83-0.2,0.83-0.71
			c0-0.54-0.51-0.74-1-0.74c-0.94,0-1.12,0.48-1.14,0.81h-2.82c0.05-1.12,0.6-1.78,1.38-2.15c0.77-0.37,1.78-0.46,2.72-0.46
			c3.8,0,3.77,1.58,3.77,3.11V9.17z M27.91,7.38c-0.37,0.18-0.78,0.29-1.2,0.38c-0.68,0.15-1.03,0.32-1.03,0.86
			c0,0.37,0.4,0.74,0.95,0.74c0.69,0,1.23-0.41,1.27-1.24V7.38z"/>
		<path class="st0" d="M35.55,2.99h1.63v1.87h-1.63v2.78c0,0.74,0.17,1.06,0.94,1.06c0.23,0,0.46-0.02,0.69-0.05v2.3
			c-0.61,0-1.3,0.09-1.95,0.09c-1.29,0-2.72-0.2-2.72-2.38v-3.8h-1.35V2.99h1.35V0.57h3.04V2.99z"/>
		<path class="st0" d="M37.6,2.99h2.91v1.27h0.03c0.49-0.95,1.14-1.47,2.24-1.47c0.31,0,0.6,0.05,0.89,0.12V5.6
			c-0.31-0.11-0.58-0.2-1.2-0.2c-1.2,0-1.84,0.71-1.84,2.41v3.15H37.6V2.99z"/>
		<path class="st0" d="M47.6,11.15c-2.99,0-4.34-1.98-4.34-4.19c0-2.21,1.35-4.17,4.34-4.17c2.99,0,4.34,1.96,4.34,4.17
			C51.95,9.17,50.6,11.15,47.6,11.15z M47.6,5c-1.15,0-1.3,1.12-1.3,1.96c0,0.84,0.15,1.98,1.3,1.98c1.15,0,1.3-1.14,1.3-1.98
			C48.91,6.12,48.75,5,47.6,5z"/>
		<path class="st0" d="M52.73,2.99h2.93V4h0.03c0.57-0.8,1.38-1.21,2.59-1.21c1.43,0,2.73,0.87,2.73,2.7v5.46h-3.04V6.78
			c0-0.92-0.11-1.56-1-1.56c-0.52,0-1.21,0.26-1.21,1.53v4.2h-3.04V2.99z"/>
		<path class="st0" d="M65.23,2.13h-3.04V0h3.04V2.13z M62.19,2.99h3.04v7.96h-3.04V2.99z"/>
		<path class="st0" d="M68.16,6.77l-2.5-3.77H69l0.87,1.58l0.89-1.58h3.25l-2.5,3.77l2.82,4.19H71l-1.17-1.95l-1.12,1.95h-3.33
			L68.16,6.77z"/>
	</g>
	<rect x="10.59" y="0" class="st1" width="3.04" height="2.13"/>
	<rect x="62.18" y="0" class="st1" width="3.04" height="2.13"/>
</g>
</svg>
