<?xml version="1.0" encoding="utf-8"?>
<!-- Generator: Adobe Illustrator 24.0.2, SVG Export Plug-In . SVG Version: 6.00 Build 0)  -->
<svg version="1.1" id="Layer_1" xmlns="http://www.w3.org/2000/svg" xmlns:xlink="http://www.w3.org/1999/xlink" x="0px" y="0px"
	 viewBox="0 0 16.35 16.71" style="enable-background:new 0 0 16.35 16.71;" xml:space="preserve">
<style type="text/css">
	.st0{fill:#373737;}
</style>
<path class="st0" d="M5.48,4.93l2.56,1.48c0.04,0.02,0.09,0.04,0.13,0.04c0.05,0,0.09-0.01,0.13-0.04l2.56-1.48
	C10.95,4.89,11,4.8,11,4.7l0-2.95c0-0.1-0.05-0.19-0.13-0.23L8.31,0.04c-0.08-0.05-0.19-0.05-0.27,0L5.48,1.51c0,0-0.01,0-0.01,0.01
	C5.46,1.53,5.45,1.54,5.43,1.55c0,0-0.01,0.01-0.01,0.01C5.41,1.58,5.39,1.59,5.38,1.61c0,0,0,0,0,0C5.37,1.63,5.36,1.65,5.36,1.67
	c0,0.01,0,0.01,0,0.02c0,0.02-0.01,0.03-0.01,0.05c0,0,0,0.01,0,0.01V4.7C5.35,4.8,5.4,4.88,5.48,4.93L5.48,4.93z M5.88,2.21
	L7.9,3.38v2.33L5.88,4.54V2.21z M8.44,5.71V3.38l2.02-1.17v2.33L8.44,5.71z M8.17,0.58l2.02,1.17L8.17,2.91L6.15,1.75L8.17,0.58z
	 M5.65,11.01c0-0.1-0.05-0.19-0.13-0.23L2.96,9.3c-0.08-0.05-0.19-0.05-0.27,0l-2.56,1.48C0.05,10.82,0,10.91,0,11.01v2.95
	c0,0.1,0.05,0.19,0.13,0.23l2.56,1.48c0,0,0.01,0,0.01,0c0.01,0.01,0.03,0.01,0.05,0.02c0.01,0,0.01,0,0.02,0.01
	c0.02,0,0.04,0.01,0.06,0.01c0.02,0,0.04,0,0.06-0.01c0.01,0,0.01,0,0.02-0.01c0.02,0,0.03-0.01,0.05-0.02c0,0,0.01,0,0.01,0
	l2.56-1.48c0.08-0.05,0.13-0.14,0.13-0.23L5.65,11.01L5.65,11.01z M2.83,9.84l2.02,1.17l-2.02,1.17l-2.02-1.17L2.83,9.84z
	 M0.54,11.47l2.02,1.17v2.33L0.54,13.8V11.47z M3.1,14.97v-2.33l2.02-1.17v2.33L3.1,14.97z M16.34,11c0-0.02,0-0.03-0.01-0.05
	c0-0.01,0-0.01,0-0.02c-0.01-0.02-0.01-0.04-0.02-0.06c0,0,0,0,0,0c-0.01-0.02-0.02-0.04-0.04-0.05c0,0-0.01-0.01-0.01-0.01
	c-0.01-0.01-0.03-0.02-0.04-0.03c0,0,0,0-0.01-0.01L13.65,9.3c-0.08-0.05-0.19-0.05-0.27,0l-2.56,1.48
	c-0.08,0.05-0.13,0.14-0.13,0.23l0,2.95c0,0.1,0.05,0.19,0.13,0.23l2.56,1.48c0.04,0.02,0.09,0.04,0.13,0.04
	c0.05,0,0.09-0.01,0.13-0.04l2.56-1.48c0.08-0.05,0.13-0.14,0.13-0.23l0-2.95C16.35,11,16.34,11,16.34,11L16.34,11z M13.52,9.84
	l2.02,1.17l-2.02,1.17l-2.02-1.17L13.52,9.84z M11.23,11.47l2.02,1.17v2.33l-2.02-1.17V11.47z M13.79,14.97v-2.33l2.02-1.17v2.33
	L13.79,14.97z M11.96,4.29c0.09-0.12,0.26-0.13,0.38-0.04c1.11,0.9,1.88,2.11,2.24,3.47L14.9,7.2c0.08-0.13,0.25-0.16,0.37-0.09
	c0.13,0.08,0.16,0.25,0.09,0.37l-0.68,1.09c-0.05,0.08-0.14,0.13-0.23,0.13c-0.05,0-0.1-0.01-0.14-0.04l-1.09-0.68
	c-0.13-0.08-0.16-0.25-0.09-0.37c0.08-0.13,0.25-0.16,0.37-0.09l0.55,0.34C13.73,6.62,13.01,5.5,12,4.67
	C11.88,4.58,11.86,4.41,11.96,4.29L11.96,4.29z M1.64,8.36c0.22-1.4,0.88-2.68,1.88-3.67L2.91,4.67C2.76,4.67,2.64,4.54,2.65,4.39
	c0.01-0.15,0.13-0.27,0.28-0.26l1.28,0.04c0.15,0.01,0.27,0.13,0.26,0.28L4.42,5.73C4.42,5.88,4.3,5.99,4.15,5.99c0,0-0.01,0-0.01,0
	C4,5.99,3.88,5.86,3.88,5.72l0.02-0.65C2.98,5.98,2.37,7.16,2.17,8.45C2.15,8.58,2.03,8.68,1.9,8.68c-0.01,0-0.03,0-0.04,0
	C1.71,8.65,1.61,8.51,1.64,8.36L1.64,8.36z M10.7,15.23c0.05,0.14-0.02,0.29-0.15,0.35c-0.76,0.29-1.56,0.44-2.38,0.44
	c-0.6,0-1.18-0.08-1.75-0.23l0.29,0.54c0.07,0.13,0.02,0.29-0.11,0.36c-0.04,0.02-0.08,0.03-0.13,0.03c-0.1,0-0.19-0.05-0.24-0.14
	l-0.6-1.13c-0.07-0.13-0.02-0.29,0.11-0.36l1.13-0.6c0.13-0.07,0.29-0.02,0.36,0.11c0.07,0.13,0.02,0.29-0.11,0.36l-0.57,0.31
	c0.52,0.14,1.07,0.22,1.62,0.22c0.75,0,1.49-0.14,2.18-0.4C10.49,15.02,10.65,15.09,10.7,15.23L10.7,15.23z"/>
</svg>
