<?xml version="1.0" encoding="utf-8"?>
<!-- Generator: Adobe Illustrator 24.0.2, SVG Export Plug-In . SVG Version: 6.00 Build 0)  -->
<svg version="1.1" id="Layer_1" xmlns="http://www.w3.org/2000/svg" xmlns:xlink="http://www.w3.org/1999/xlink" x="0px" y="0px"
	 viewBox="0 0 27.42 28.36" style="enable-background:new 0 0 27.42 28.36;" xml:space="preserve">
<style type="text/css">
	.st0{fill:#373737;}
</style>
<g>
	<g>
		<path class="st0" d="M23.15,18.59l-5.75-1.89c-0.11-0.48-0.38-1.76-0.42-1.9c0.76-0.7,1.36-1.54,1.77-2.47
			c0.3-0.11,0.52-0.38,0.56-0.71l0.27-1.81c0.05-0.46-0.24-0.89-0.7-1V6.33l2.19-2.88c0.08-0.1,0.11-0.24,0.08-0.36
			c-0.03-0.13-0.11-0.23-0.23-0.29c-0.21-0.11-5.27-2.66-7.16-2.66l-0.05,0l-0.08,0c-1.89,0-6.94,2.56-7.16,2.66
			c-0.12,0.06-0.2,0.17-0.23,0.29c-0.03,0.13,0,0.26,0.08,0.36l2.21,2.91l0,2.45C8.36,8.85,8.18,8.95,8.05,9.1
			C7.88,9.3,7.8,9.56,7.83,9.82l0.27,1.8c0.05,0.33,0.27,0.6,0.57,0.71c0.41,0.93,1.01,1.77,1.76,2.47c0,0,0,0.01,0,0.01l-0.41,1.89
			l-5.73,1.88c-2.52,0.71-4.16,3.16-4.16,5.11v4.1c0,0.24,0.2,0.44,0.44,0.44h26.29c0.24,0,0.44-0.2,0.44-0.44
			c0-4.4,0.01-4.12-0.03-4.23C27.05,21.24,25.41,19.23,23.15,18.59L23.15,18.59z M26.41,25.81h-2.23c-0.46,0-0.84-0.38-0.84-0.84
			c0-0.46,0.38-0.84,0.84-0.84h2.23V25.81z M11.19,15.43c1.8,1.26,3.12,1.37,5.02-0.01l0.33,1.54l-2.84,4.24l-2.84-4.24L11.19,15.43
			z M13.65,1l0.08,0l0.05,0c1.26,0,4.61,1.52,6.29,2.33l-1.89,2.49H9.25L7.36,3.34C9.03,2.52,12.39,1,13.65,1L13.65,1z M17.79,6.71
			l-0.3,0.98c-3.22,1.36-4.29,1.37-7.55,0l-0.3-0.98H17.79z M9.42,11.85c-0.05-0.2-0.24-0.35-0.45-0.35L8.73,9.67h0.26
			c0.12,0,0.23-0.05,0.31-0.13c0.08-0.08,0.13-0.19,0.13-0.31l0-0.8c0.33,0.14,2.7,1.16,4.16,1.16c0.05,0,0.09,0,0.1,0
			c1.19,0.06,3.24-0.69,4.32-1.17c0,0.04-0.02,0.84-0.02,0.79c-0.01,0.25,0.19,0.46,0.44,0.46l0.29,0.02l-0.29,1.82
			c-0.19,0-0.36,0.13-0.42,0.31c-0.65,1.57-1.88,2.76-3.15,3.41l-0.11,0.05C12.81,16.27,10.26,13.88,9.42,11.85L9.42,11.85z
			 M3.23,24.13c0.46,0,0.84,0.38,0.84,0.84c0,0.46-0.38,0.84-0.84,0.84l-2.23,0v-1.68L3.23,24.13z M1,27.35v-0.66h2.23
			c0.95,0,1.72-0.77,1.72-1.72c0-0.95-0.77-1.72-1.72-1.72H1.08c0.32-1.8,1.65-3.32,3.47-3.83l5.67-1.86l3.13,4.67
			c0.16,0.24,0.57,0.24,0.73,0l3.13-4.67l5.69,1.87c1.8,0.51,3.13,2.02,3.45,3.82h-2.15c-0.95,0-1.72,0.77-1.72,1.72
			c0,0.95,0.77,1.72,1.72,1.72h2.23l0,0.66L1,27.35z"/>
		<path class="st0" d="M26.85,28.36H0.56C0.25,28.36,0,28.1,0,27.79v-4.1c0-1.94,1.63-4.49,4.25-5.23l5.66-1.86l0.38-1.76
			c-0.73-0.7-1.31-1.51-1.72-2.42c-0.32-0.14-0.55-0.44-0.6-0.79l-0.27-1.8c-0.04-0.3,0.05-0.6,0.24-0.82
			c0.13-0.14,0.29-0.25,0.48-0.31l0-2.31L6.24,3.52c-0.1-0.13-0.14-0.3-0.1-0.47c0.04-0.16,0.15-0.3,0.29-0.38
			C6.98,2.4,11.77,0,13.65,0l0.08,0l0.04,0c1.96,0,7.16,2.65,7.21,2.68c0.15,0.08,0.26,0.21,0.29,0.38c0.04,0.16,0,0.33-0.1,0.47
			l-2.17,2.85v2.35c0.46,0.15,0.75,0.61,0.7,1.1l-0.27,1.82c-0.04,0.34-0.27,0.64-0.59,0.79c-0.41,0.9-0.99,1.71-1.73,2.41
			c0.05,0.21,0.16,0.75,0.27,1.24l0.12,0.53l5.68,1.87c2.29,0.65,3.98,2.69,4.21,5.08c0.03,0.07,0.03,0.07,0.03,2.35v1.89
			C27.42,28.1,27.16,28.36,26.85,28.36z M13.65,0.25c-1.84,0-6.88,2.54-7.1,2.65C6.46,2.94,6.4,3.02,6.38,3.11
			c-0.02,0.09,0,0.19,0.06,0.26l2.24,2.94l0,2.6l-0.1,0.02C8.41,8.96,8.25,9.05,8.14,9.18C8,9.35,7.93,9.58,7.96,9.81l0.27,1.8
			c0.04,0.28,0.22,0.51,0.49,0.61l0.05,0.02l0.02,0.05c0.4,0.92,0.99,1.74,1.73,2.43l0.05,0.05l-0.03,0.1l-0.42,1.94l-5.8,1.9
			c-2.52,0.71-4.08,3.14-4.08,4.99v4.1c0,0.17,0.14,0.31,0.31,0.31h26.29c0.17,0,0.31-0.14,0.31-0.31V25.9c0-1.94,0-2.24-0.01-2.28
			l-0.01-0.05c-0.21-2.29-1.83-4.24-4.03-4.87l0,0l-5.82-1.91l-0.15-0.67c-0.12-0.53-0.26-1.2-0.29-1.3l-0.02-0.07l0.05-0.05
			c0.75-0.7,1.34-1.52,1.74-2.43l0.02-0.05l0.05-0.02c0.27-0.1,0.45-0.34,0.48-0.61l0.27-1.82c0.05-0.4-0.21-0.77-0.6-0.85
			l-0.1-0.02V6.29l2.22-2.91c0.06-0.08,0.08-0.17,0.06-0.26c-0.02-0.09-0.08-0.17-0.16-0.21c-1.44-0.74-5.53-2.65-7.1-2.65l-0.04,0
			L13.65,0.25z M26.54,27.48H0.88v-0.91h2.35c0.88,0,1.59-0.71,1.59-1.59c0-0.88-0.71-1.59-1.59-1.59h-2.3l0.03-0.15
			c0.33-1.87,1.73-3.41,3.56-3.93l5.76-1.89l3.18,4.75c0.11,0.16,0.42,0.16,0.52,0l3.18-4.75l5.78,1.9c1.81,0.51,3.2,2.05,3.53,3.92
			l0.03,0.15h-2.3c-0.88,0-1.59,0.71-1.59,1.59s0.71,1.59,1.59,1.59h2.35L26.54,27.48z M1.13,27.23h25.16l0-0.41h-2.1
			c-1.02,0-1.84-0.83-1.84-1.84s0.83-1.84,1.84-1.84h2c-0.36-1.71-1.65-3.1-3.33-3.58l-5.6-1.84l-3.08,4.59
			c-0.1,0.15-0.27,0.24-0.47,0.24s-0.37-0.09-0.47-0.24l-3.07-4.59l-5.58,1.83c-1.7,0.48-3,1.88-3.35,3.58h2
			c1.02,0,1.84,0.83,1.84,1.84c0,1.02-0.83,1.84-1.84,1.84h-2.1V27.23z M26.54,25.94h-2.35c-0.53,0-0.96-0.43-0.96-0.96
			s0.43-0.96,0.96-0.96h2.35V25.94z M24.19,24.26c-0.39,0-0.71,0.32-0.71,0.71s0.32,0.71,0.71,0.71h2.1v-1.43H24.19z M3.23,25.94
			H0.88v-1.93h2.35c0.53,0,0.97,0.43,0.97,0.96S3.76,25.94,3.23,25.94z M1.13,25.69h2.1c0.39,0,0.72-0.32,0.72-0.71
			s-0.32-0.71-0.72-0.71h-2.1V25.69z M13.71,21.42l-2.98-4.44l0.38-1.76l0.15,0.11c1.83,1.28,3.1,1.28,4.88-0.01l0.15-0.11
			l0.39,1.78l-0.03,0.04L13.71,21.42z M11,16.93l2.71,4.04l2.71-4.04l-0.28-1.3c-1.75,1.22-3.05,1.22-4.85,0.01L11,16.93z
			 M13.78,15.64c-0.32,0-0.66-0.07-1.02-0.2c-1.54-0.57-2.91-2.22-3.46-3.55L9.3,11.88c-0.04-0.15-0.18-0.26-0.33-0.26H8.86
			L8.59,9.54h0.41c0.08,0,0.16-0.03,0.22-0.09c0.06-0.06,0.09-0.14,0.09-0.22l0-0.99l0.17,0.08c0.27,0.12,2.67,1.15,4.11,1.15
			c0.02,0,0.05,0,0.06,0l0.01,0l0.03,0c1.18,0.05,3.24-0.7,4.26-1.16l0.18-0.08l0,0.2c-0.01,0.44-0.01,0.67-0.03,0.79h0.01H18.1
			c0,0,0,0,0,0h0.01c0,0.09,0.03,0.17,0.09,0.23c0.06,0.06,0.14,0.1,0.23,0.1l0.43,0.04l-0.32,2.06h-0.11
			c-0.13,0-0.25,0.09-0.3,0.22c-0.61,1.48-1.78,2.75-3.21,3.48l-0.11,0.05C14.49,15.56,14.14,15.64,13.78,15.64z M9.54,11.81
			c0.53,1.28,1.84,2.86,3.31,3.41c0.68,0.25,1.3,0.24,1.84-0.04l0.11-0.05c1.38-0.71,2.5-1.93,3.09-3.35
			c0.06-0.19,0.23-0.33,0.42-0.38l0.25-1.59l-0.15-0.01h0c-0.15,0-0.29-0.06-0.4-0.17c-0.08-0.08-0.13-0.18-0.15-0.29h-0.01l0-0.1
			c0-0.01,0-0.02,0-0.03l0,0c0-0.04,0.01-0.37,0.01-0.59c-1.05,0.45-2.89,1.11-4.06,1.11c-0.04,0-0.08,0-0.12,0
			c-0.02,0-0.05,0-0.1,0c-1.32,0-3.33-0.8-4.03-1.1l0,0.61c0,0.15-0.06,0.29-0.16,0.4c-0.11,0.11-0.25,0.17-0.4,0.17H8.87l0.21,1.59
			C9.29,11.42,9.48,11.59,9.54,11.81z M13.71,8.84c-1.09,0-2.18-0.35-3.83-1.04L9.83,7.78l-0.37-1.2h8.49l-0.37,1.2L17.53,7.8
			C15.89,8.5,14.8,8.84,13.71,8.84z M10.03,7.6c3.15,1.32,4.2,1.32,7.35,0l0.24-0.76H9.8L10.03,7.6z M18.23,5.95H9.19L7.17,3.29
			l0.14-0.07c0.8-0.39,4.87-2.35,6.34-2.35h0.12c1.48,0,5.54,1.96,6.34,2.35l0.14,0.07L18.23,5.95z M9.32,5.7h8.79l1.76-2.32
			c-2.17-1.06-5.02-2.26-6.09-2.26l-0.04,0l-0.08,0c-1.08,0-3.92,1.2-6.09,2.26L9.32,5.7z"/>
	</g>
	<g>
		<path class="st0" d="M13.27,23.48h0.88v1.11h-0.88V23.48z"/>
		<path class="st0" d="M14.27,24.72h-1.13v-1.36h1.13V24.72z M13.4,24.47h0.63v-0.86H13.4V24.47z"/>
	</g>
	<g>
		<path class="st0" d="M13.27,25.49h0.88v1.11h-0.88V25.49z"/>
		<path class="st0" d="M14.27,26.72h-1.13v-1.36h1.13V26.72z M13.4,26.47h0.63v-0.86H13.4V26.47z"/>
	</g>
	<g>
		<path class="st0" d="M20.43,23.48l0.67-0.91c0.1-0.14,0.11-0.33,0.03-0.48c-0.09-0.15-0.25-0.23-0.43-0.22L19.57,22l-0.45-1.03
			c-0.07-0.16-0.23-0.26-0.4-0.26c-0.17,0-0.33,0.1-0.4,0.26L17.86,22l-1.12-0.12c-0.17-0.02-0.34,0.07-0.43,0.22
			c-0.09,0.15-0.08,0.34,0.03,0.48L17,23.48l-0.67,0.91c-0.1,0.14-0.11,0.33-0.03,0.48c0.09,0.15,0.26,0.24,0.43,0.22l1.12-0.12
			L18.32,26c0.07,0.16,0.23,0.26,0.4,0.26c0.17,0,0.33-0.1,0.4-0.26l0.45-1.03l1.12,0.12c0.17,0.02,0.34-0.07,0.43-0.22
			c0.09-0.15,0.08-0.34-0.03-0.48L20.43,23.48z M19.35,24.06c-0.19-0.02-0.37,0.08-0.45,0.26l-0.18,0.41l-0.18-0.41
			c-0.07-0.16-0.23-0.26-0.4-0.26c-0.02,0-0.03,0-0.05,0l-0.45,0.05l0.27-0.37c0.11-0.15,0.11-0.36,0-0.52l-0.27-0.36l0.45,0.05
			c0.19,0.02,0.37-0.08,0.45-0.26l0.18-0.41l0.18,0.41c0.08,0.18,0.26,0.28,0.45,0.26l0.45-0.05l-0.27,0.36
			c-0.11,0.15-0.11,0.36,0,0.52l0.27,0.37L19.35,24.06z"/>
		<path class="st0" d="M18.72,26.39c-0.22,0-0.42-0.13-0.52-0.34l-0.42-0.95l-1.03,0.11c-0.23,0.04-0.44-0.09-0.55-0.28
			c-0.11-0.19-0.1-0.44,0.03-0.62l0.61-0.84l-0.61-0.84c-0.13-0.18-0.14-0.42-0.03-0.62c0.11-0.19,0.33-0.3,0.55-0.28l1.03,0.11
			l0.42-0.95c0.09-0.2,0.29-0.34,0.52-0.34c0.22,0,0.43,0.13,0.52,0.34l0.42,0.95l1.03-0.11c0.23-0.02,0.44,0.09,0.55,0.28
			c0.11,0.19,0.1,0.43-0.03,0.61l-0.61,0.84l0.61,0.83c0.13,0.18,0.14,0.42,0.03,0.62c-0.11,0.19-0.33,0.31-0.55,0.28l-1.03-0.11
			l-0.42,0.95C19.14,26.25,18.94,26.39,18.72,26.39z M17.94,24.83l0.49,1.11c0.05,0.11,0.16,0.19,0.29,0.19s0.24-0.07,0.29-0.19
			l0.49-1.11l1.21,0.13c0.12,0.01,0.24-0.05,0.31-0.16s0.06-0.24-0.02-0.34l-0.72-0.98L21,22.5c0.07-0.1,0.08-0.23,0.02-0.34
			s-0.18-0.17-0.31-0.16l-1.21,0.13L19,21.02c-0.05-0.11-0.16-0.19-0.29-0.19c-0.12,0-0.24,0.07-0.29,0.19l-0.49,1.11L16.73,22
			c-0.12-0.01-0.24,0.05-0.31,0.16c-0.06,0.11-0.06,0.24,0.02,0.34l0.72,0.98l-0.72,0.98c-0.07,0.1-0.08,0.23-0.02,0.34
			c0.06,0.11,0.19,0.17,0.3,0.16L17.94,24.83z M18.72,25.04l-0.3-0.67c-0.05-0.12-0.19-0.2-0.32-0.19l-0.73,0.08l0.44-0.59
			c0.08-0.11,0.08-0.26,0-0.37l-0.43-0.59l0.73,0.08c0.14,0.01,0.27-0.06,0.32-0.19l0.3-0.67l0.3,0.67
			c0.06,0.13,0.19,0.19,0.32,0.19l0.73-0.08l-0.44,0.59c-0.08,0.11-0.08,0.26,0,0.37l0.44,0.59l-0.73-0.08
			c-0.13-0.01-0.27,0.06-0.32,0.19L18.72,25.04z M18.13,23.93c0.22,0,0.43,0.13,0.52,0.34l0.07,0.15l0.07-0.16
			c0.1-0.23,0.35-0.36,0.58-0.33h0l0.17,0.02l-0.1-0.14c-0.15-0.2-0.15-0.47,0-0.67l0.1-0.14l-0.17,0.02
			c-0.25,0.03-0.48-0.11-0.58-0.33l-0.07-0.16l-0.07,0.16c-0.1,0.22-0.33,0.36-0.58,0.33l-0.17-0.02l0.1,0.13
			c0.15,0.2,0.15,0.47,0,0.67l-0.1,0.14l0.17-0.02C18.09,23.93,18.11,23.93,18.13,23.93z"/>
	</g>
	<g>
		<path class="st0" d="M13.71,4.89c0.82,0,1.48-0.66,1.48-1.48c0-0.82-0.66-1.48-1.48-1.48c-0.82,0-1.48,0.66-1.48,1.48
			C12.23,4.23,12.89,4.89,13.71,4.89z M13.71,2.82c0.33,0,0.6,0.27,0.6,0.6c0,0.33-0.27,0.6-0.6,0.6c-0.33,0-0.6-0.27-0.6-0.6
			C13.11,3.09,13.38,2.82,13.71,2.82z"/>
		<path class="st0" d="M13.71,5.02c-0.89,0-1.61-0.72-1.61-1.6c0-0.89,0.72-1.61,1.61-1.61s1.61,0.72,1.61,1.61
			C15.31,4.3,14.59,5.02,13.71,5.02z M13.71,2.06c-0.75,0-1.36,0.61-1.36,1.36c0,0.75,0.61,1.35,1.36,1.35
			c0.75,0,1.36-0.61,1.36-1.35C15.06,2.67,14.46,2.06,13.71,2.06z M13.71,4.14c-0.4,0-0.73-0.32-0.73-0.72
			c0-0.4,0.33-0.73,0.73-0.73s0.73,0.33,0.73,0.73C14.44,3.82,14.11,4.14,13.71,4.14z M13.71,2.94c-0.26,0-0.48,0.21-0.48,0.48
			c0,0.26,0.21,0.47,0.48,0.47s0.48-0.21,0.48-0.47C14.19,3.16,13.97,2.94,13.71,2.94z"/>
	</g>
</g>
</svg>
