<?xml version="1.0" encoding="utf-8"?>
<!-- Generator: Adobe Illustrator 24.0.2, SVG Export Plug-In . SVG Version: 6.00 Build 0)  -->
<svg version="1.1" id="Layer_1" xmlns="http://www.w3.org/2000/svg" xmlns:xlink="http://www.w3.org/1999/xlink" x="0px" y="0px"
	 viewBox="0 0 30.7 30.7" style="enable-background:new 0 0 30.7 30.7;" xml:space="preserve" fill="#373737">
<style type="text/css">
	.st0{fill:#373737;}
</style>
<g>
	<path class="st0" d="M30.29,7.76L15.71,0.09l0,0c-0.22-0.12-0.49-0.12-0.72,0L0.41,7.76l0,0C0.16,7.9,0,8.16,0,8.44v3.07
		c0,0.2,0.08,0.4,0.22,0.54c0.14,0.14,0.34,0.22,0.54,0.22h0.77v17.65c0,0.2,0.08,0.4,0.22,0.54C1.9,30.62,2.1,30.7,2.3,30.7h26.1
		c0.2,0,0.4-0.08,0.54-0.22c0.14-0.14,0.22-0.34,0.22-0.54V12.28h0.77c0.2,0,0.4-0.08,0.54-0.22c0.14-0.14,0.22-0.34,0.22-0.54V8.44
		v0C30.7,8.16,30.54,7.9,30.29,7.76L30.29,7.76z M9.21,29.17v-9.21h5.37v9.21H9.21z M16.12,29.17v-9.21h5.37v9.21H16.12z
		 M27.63,29.17h-4.61v-9.98c0-0.2-0.08-0.4-0.22-0.54c-0.14-0.14-0.34-0.22-0.54-0.22H8.44c-0.2,0-0.4,0.08-0.54,0.22
		c-0.14,0.14-0.22,0.34-0.22,0.54v9.98H3.07V12.28h24.56L27.63,29.17z M29.17,10.75H1.54V8.91l13.82-7.27l13.82,7.27V10.75z"/>
	<path class="st0" d="M8.44,16.12h13.82c0.42,0,0.77-0.34,0.77-0.77s-0.34-0.77-0.77-0.77H8.44c-0.42,0-0.77,0.34-0.77,0.77
		S8.02,16.12,8.44,16.12z"/>
</g>
</svg>
