<?xml version="1.0" encoding="utf-8"?>
<!-- Generator: Adobe Illustrator 24.0.2, SVG Export Plug-In . SVG Version: 6.00 Build 0)  -->
<svg version="1.1" id="Layer_1" xmlns="http://www.w3.org/2000/svg" xmlns:xlink="http://www.w3.org/1999/xlink" x="0px" y="0px"
	 viewBox="0 0 43.32 29.11" style="enable-background:new 0 0 43.32 29.11;" xml:space="preserve">
<style type="text/css">
	.st0{fill:#373737;}
</style>
<g>
	<path class="st0" d="M5.07,29.11c0.76,0,1.29-0.62,1.62-1.5l-1.43-0.13c-0.05,0.09-0.11,0.18-0.19,0.25
		c-0.09-0.08-0.16-0.18-0.21-0.29l-1.51-0.13C3.67,28.35,4.23,29.11,5.07,29.11L5.07,29.11z"/>
	<path class="st0" d="M35.68,20.48c0,2.42,0.85,3.93,2.22,3.93s2.22-1.51,2.22-3.93s-0.85-3.93-2.22-3.93
		C36.53,16.55,35.68,18.06,35.68,20.48z M38.78,20.48c0,1.42-0.39,2.58-0.87,2.58c-0.48,0-0.87-1.15-0.87-2.58
		c0-1.42,0.39-2.58,0.87-2.58C38.39,17.9,38.78,19.06,38.78,20.48z"/>
	<path class="st0" d="M23.01,19.97c-1.75,0-2.37,2.27-2.37,4.4s0.62,4.4,2.37,4.4c1.75,0,2.37-2.27,2.37-4.4
		S24.76,19.97,23.01,19.97z M23.01,27.42c-0.56,0-1.02-1.36-1.02-3.05c0-1.68,0.45-3.05,1.02-3.05c0.56,0,1.02,1.36,1.02,3.05
		C24.03,26.05,23.57,27.42,23.01,27.42L23.01,27.42z"/>
	<path class="st0" d="M0.62,25.71l11.51,1.02c0.02,0,0.04,0,0.06,0c0.03,0,7.2-1.02,7.2-1.02h0c0.33-0.05,0.58-0.33,0.58-0.67v-3.68
		c0-0.67,0.25-1.31,0.69-1.81c0.45-0.5,1.06-0.81,1.73-0.88l0.04,0c1.17-0.12,2.19-0.19,2.73,0.31c0.38,0.35,0.57,1.02,0.56,2.01
		v0.34l0,0c0,0.22,0.11,0.43,0.3,0.56c0.19,0.13,0.42,0.15,0.63,0.07l1.09-0.44v0.16h0c0,0.18,0.07,0.35,0.2,0.48
		c0.13,0.13,0.3,0.2,0.48,0.2c0.04,0,0.07,0,0.11-0.01l6.02-1c-0.02-0.27-0.04-0.55-0.04-0.85c0-0.18,0.01-0.35,0.01-0.52l-5.43,0.9
		l0-17.32l12.86,7.35v7.83l-0.81,0.13v0c0.07,0.45,0.12,0.9,0.13,1.35l1.47-0.25c0.33-0.05,0.57-0.34,0.57-0.67v-8.8
		c0-0.24-0.13-0.47-0.34-0.59L25.36,0.07C25.24,0.02,25.12-0.01,24.99,0L12.81,1.02c-0.27,0.02-0.5,0.2-0.58,0.45l-0.69,1.99
		L7.57,4.63C7.39,4.68,7.24,4.81,7.16,4.97L6.14,7c-0.1,0.21-0.09,0.46,0.03,0.66c0.12,0.2,0.34,0.32,0.58,0.32h0.13l-0.76,2.78
		l-2.97,2.11c-0.58,0.06-1.13,0.33-1.52,0.76c-0.39,0.43-0.62,1-0.62,1.58L0.99,21l-0.26-0.02h0c-0.19-0.02-0.38,0.05-0.52,0.17
		C0.08,21.28,0,21.47,0,21.66v3.38C0,25.39,0.27,25.68,0.62,25.71L0.62,25.71z M25.72,1.77l2.02,1.01v17.27l-0.67,0.27
		c-0.08-1.06-0.4-1.83-0.98-2.35c-0.11-0.1-0.23-0.19-0.36-0.27L25.72,1.77z M7.13,11.7l13.83-0.23c0.29,0,0.54-0.19,0.63-0.46
		l1.36-4.05c0.12-0.34-0.06-0.71-0.39-0.85C20.7,5.39,10.46,6.24,7.92,6.46l0.31-0.62l4.01-1.18h0c0.21-0.06,0.38-0.22,0.45-0.43
		l0.66-1.9l11.01-0.92v15.84c-0.69-0.06-1.39-0.04-2.07,0.06l-0.04,0c-0.95,0.1-1.83,0.53-2.49,1.21c-0.66,0.69-1.06,1.58-1.13,2.53
		l-5.79,0.83l0.02-6.66c0-0.63-0.25-1.23-0.69-1.68c-0.44-0.45-1.05-0.7-1.68-0.7H5.5L7.13,11.7z M7.76,10.34l0.58-2.56
		c4.33-0.38,10.84-0.78,13.09-0.53l-0.97,2.88L7.76,10.34z M2.36,15.22c0-0.54,0.43-0.99,0.97-1.01c0.01,0,0.02,0,0.03,0
		c0.02,0,0.03-0.01,0.05-0.01l7.07,0c0.27,0,0.53,0.11,0.72,0.3c0.19,0.19,0.3,0.45,0.3,0.72l-0.02,6.7l-9.14-0.81L2.36,15.22z
		 M1.35,22.39l10.77,0.95c0.05,0,0.1,0,0.16,0l6.34-0.9v2.02l-6.45,0.92L1.35,24.42L1.35,22.39z"/>
</g>
</svg>
