<?xml version="1.0" encoding="utf-8"?>
<!-- Generator: Adobe Illustrator 24.0.2, SVG Export Plug-In . SVG Version: 6.00 Build 0)  -->
<svg version="1.1" id="Layer_1" xmlns="http://www.w3.org/2000/svg" xmlns:xlink="http://www.w3.org/1999/xlink" x="0px" y="0px"
	 viewBox="0 0 32.24 36.84" style="enable-background:new 0 0 32.24 36.84;" xml:space="preserve">
<style type="text/css">
	.st0{fill:#373737;}
</style>
<g>
	<path class="st0" d="M30.51,16.12h-2.7L17.39,8.82c0.62-0.41,1.03-1.12,1.03-1.92c0-1.07-0.73-1.97-1.73-2.23V3.45h0.58
		c0.22,0,0.42-0.12,0.52-0.32l1.15-2.3c0.09-0.18,0.08-0.39-0.03-0.56C18.81,0.1,18.62,0,18.42,0h-4.61c-0.2,0-0.38,0.1-0.49,0.27
		c-0.11,0.17-0.11,0.38-0.03,0.56l1.15,2.3c0.1,0.19,0.3,0.32,0.52,0.32h0.58v1.73c0,0.32,0.26,0.58,0.58,0.58
		c0.63,0,1.15,0.52,1.15,1.15s-0.52,1.15-1.15,1.15c-0.63,0-1.15-0.52-1.15-1.15c0-0.32-0.26-0.58-0.58-0.58s-0.58,0.26-0.58,0.58
		c0,0.8,0.41,1.5,1.03,1.92L4.42,16.12h-2.7C0.77,16.12,0,16.89,0,17.84v17.27c0,0.95,0.77,1.73,1.73,1.73h28.78
		c0.95,0,1.73-0.77,1.73-1.73V17.84C32.24,16.89,31.46,16.12,30.51,16.12L30.51,16.12z M14.75,1.15h2.74L16.91,2.3h-1.59L14.75,1.15
		z M16.12,9.34l9.69,6.78H6.43L16.12,9.34z M31.08,35.11c0,0.32-0.26,0.58-0.58,0.58H1.73c-0.32,0-0.58-0.26-0.58-0.58V17.84
		c0-0.32,0.26-0.58,0.58-0.58h28.78c0.32,0,0.58,0.26,0.58,0.58V35.11z"/>
	<path class="st0" d="M29.36,18.42H2.88c-0.32,0-0.58,0.26-0.58,0.58v14.97c0,0.32,0.26,0.58,0.58,0.58h26.48
		c0.32,0,0.58-0.26,0.58-0.58V19C29.93,18.68,29.67,18.42,29.36,18.42z M28.78,33.39H3.45V19.57h25.33V33.39z"/>
	<path class="st0" d="M16.12,31.08c0.32,0,0.58-0.26,0.58-0.58v-8.06c0-0.32-0.26-0.58-0.58-0.58c-0.32,0-0.58,0.26-0.58,0.58v8.06
		C15.54,30.83,15.8,31.08,16.12,31.08z"/>
	<path class="st0" d="M12.66,31.08c0.32,0,0.58-0.26,0.58-0.58v-8.06c0-0.32-0.26-0.58-0.58-0.58s-0.58,0.26-0.58,0.58v8.06
		C12.09,30.83,12.35,31.08,12.66,31.08z"/>
	<path class="st0" d="M9.21,31.08c0.32,0,0.58-0.26,0.58-0.58v-8.06c0-0.32-0.26-0.58-0.58-0.58s-0.58,0.26-0.58,0.58v8.06
		C8.63,30.83,8.89,31.08,9.21,31.08z"/>
	<path class="st0" d="M5.76,31.08c0.32,0,0.58-0.26,0.58-0.58v-8.06c0-0.32-0.26-0.58-0.58-0.58c-0.32,0-0.58,0.26-0.58,0.58v8.06
		C5.18,30.83,5.44,31.08,5.76,31.08z"/>
	<path class="st0" d="M26.48,31.08c0.32,0,0.58-0.26,0.58-0.58v-8.06c0-0.32-0.26-0.58-0.58-0.58c-0.32,0-0.58,0.26-0.58,0.58v8.06
		C25.9,30.83,26.16,31.08,26.48,31.08z"/>
	<path class="st0" d="M23.02,31.08c0.32,0,0.58-0.26,0.58-0.58v-8.06c0-0.32-0.26-0.58-0.58-0.58c-0.32,0-0.58,0.26-0.58,0.58v8.06
		C22.45,30.83,22.71,31.08,23.02,31.08z"/>
	<path class="st0" d="M19.57,31.08c0.32,0,0.58-0.26,0.58-0.58v-8.06c0-0.32-0.26-0.58-0.58-0.58c-0.32,0-0.58,0.26-0.58,0.58v8.06
		C19,30.83,19.25,31.08,19.57,31.08z"/>
</g>
</svg>
