<?xml version="1.0" encoding="utf-8"?>
<!-- Generator: Adobe Illustrator 24.0.2, SVG Export Plug-In . SVG Version: 6.00 Build 0)  -->
<svg version="1.1" id="Layer_1" xmlns="http://www.w3.org/2000/svg" xmlns:xlink="http://www.w3.org/1999/xlink" x="0px" y="0px"
	 viewBox="0 0 120 68" style="enable-background:new 0 0 120 68;" xml:space="preserve" fill="#373737">
<g>
	<path d="M109.89,18.23c-1.76-2.65-4.73-4.23-7.9-4.23H88V2c0-1.1-0.9-2-2-2H2C0.9,0,0,0.9,0,2v49.95c0,0.04,0,0.07,0.01,0.11
		c0.01,0.41,0.15,0.81,0.39,1.13l6,8C6.78,61.7,7.37,62,8,62h12.84c2.21,5.06,8.1,7.37,13.16,5.17c2.31-1.01,4.16-2.85,5.17-5.17
		h53.67c2.21,5.06,8.1,7.37,13.16,5.17c2.31-1.01,4.16-2.85,5.17-5.17H118c1.1,0,2-0.9,2-2V40.81c0-4.84-1.43-9.57-4.12-13.59
		L109.89,18.23z M106.56,20.45l5.99,8.99c0.54,0.82,1.03,1.67,1.45,2.56h-10.83L95.4,18h6.59C103.82,18,105.54,18.92,106.56,20.45
		 M90.82,18l9.43,16.97C100.6,35.6,101.27,36,102,36h13.43c0.38,1.58,0.57,3.19,0.57,4.81V50h-8.01c-3.55-2.67-8.44-2.67-11.99,0H88
		V18H90.82z M84,4v46h-48c-3.55-2.67-8.44-2.67-11.99,0H4V4H84z M9,58l-3-4h14.84C20.28,55.26,20,56.62,20,58H9z M30,64
		c-3.31,0-6-2.69-6-6c0-3.31,2.69-6,6-6c3.31,0,6,2.69,6,6C36,61.31,33.31,63.99,30,64 M40,58c0-1.38-0.28-2.74-0.84-4h53.67
		C92.28,55.26,92,56.62,92,58H40z M102,64c-3.31,0-6-2.69-6-6c0-3.31,2.69-6,6-6c3.31,0,6,2.69,6,6
		C107.99,61.31,105.31,63.99,102,64 M112,58c0-1.38-0.28-2.74-0.84-4H116v4H112z"/>
	<path d="M24,22h6c1.1,0,2-0.9,2-2s-0.9-2-2-2h-6c-1.1,0-2,0.9-2,2S22.9,22,24,22"/>
	<path d="M16,30h14c1.1,0,2-0.9,2-2s-0.9-2-2-2H16c-1.1,0-2,0.9-2,2S14.9,30,16,30"/>
	<path d="M30,34H20c-1.1,0-2,0.9-2,2c0,1.1,0.9,2,2,2h10c1.1,0,2-0.9,2-2C32,34.9,31.1,34,30,34"/>
	<path d="M96,44h6c1.1,0,2-0.9,2-2c0-1.1-0.9-2-2-2h-6c-1.1,0-2,0.9-2,2C94,43.1,94.89,44,96,44"/>
	<path d="M73.09,14.32c-0.11-0.07-16.39-6.2-16.39-6.2c-0.49-0.19-1.04-0.17-1.51,0.04c0,0-18.24,8.12-18.33,8.18
		C36.32,16.73,36,17.34,36,18v20c0,0.83,0.52,1.58,1.3,1.87l16,6c0.48,0.18,1.01,0.17,1.48-0.04c0.01,0,0.02,0,0.03-0.01l18-8
		C73.53,37.51,74,36.79,74,36V16C74,15.32,73.65,14.69,73.09,14.32 M56.06,12.16l10.66,4l-3.18,1.41l-3.43-1.63
		c-0.99-0.48-2.19-0.06-2.67,0.93c-0.48,0.99-0.06,2.19,0.93,2.67c0.01,0.01,0.02,0.01,0.03,0.01l0.33,0.15l-4.79,2.13l-10.66-4
		L56.06,12.16z M52,41.11l-12-4.5V20.89l12,4.5V41.11z M70,34.7l-14,6.22V25.3l6-2.67V26c0,1.1,0.9,2,2,2c1.1,0,2-0.9,2-2v-5.14
		l4-1.78V34.7z"/>
	<path d="M43.3,29.87l5.33,2c1.03,0.4,2.19-0.11,2.59-1.14c0.4-1.03-0.11-2.19-1.14-2.59l-0.04-0.01l-5.33-2
		c-1.03-0.4-2.19,0.11-2.59,1.14s0.11,2.19,1.14,2.59C43.27,29.86,43.28,29.87,43.3,29.87"/>
</g>
</svg>
