<?xml version="1.0" encoding="utf-8"?>
<!-- Generator: Adobe Illustrator 24.0.2, SVG Export Plug-In . SVG Version: 6.00 Build 0)  -->
<svg version="1.1" id="Layer_1" xmlns="http://www.w3.org/2000/svg" xmlns:xlink="http://www.w3.org/1999/xlink" x="0px" y="0px"
	 viewBox="0 0 35.78 29.81" style="enable-background:new 0 0 35.78 29.81;" xml:space="preserve">
<style type="text/css">
	.st0{fill:#373737;}
</style>
<g>
	<path class="st0" d="M28.47,20.88c-1.56,0-2.79,1.23-2.79,2.79c0,1.56,1.23,2.79,2.79,2.79c1.56,0,2.79-1.23,2.79-2.79
		C31.26,22.1,29.97,20.88,28.47,20.88z M28.47,25.34c-0.95,0-1.67-0.78-1.67-1.67c0-0.95,0.78-1.67,1.67-1.67
		c0.95,0,1.67,0.78,1.67,1.67C30.14,24.56,29.36,25.34,28.47,25.34L28.47,25.34z"/>
	<path class="st0" d="M28.47,12.17h-6.92c-0.33,0-0.56,0.22-0.56,0.56s0.22,0.56,0.56,0.56h6.92c0.33,0,0.56-0.22,0.56-0.56
		C29.03,12.45,28.75,12.17,28.47,12.17z"/>
	<path class="st0" d="M28.47,14.29h-6.92c-0.33,0-0.56,0.22-0.56,0.56c0,0.33,0.22,0.56,0.56,0.56h6.92c0.33,0,0.56-0.22,0.56-0.56
		C29.03,14.57,28.75,14.29,28.47,14.29z"/>
	<path class="st0" d="M28.47,16.41h-6.92c-0.33,0-0.56,0.22-0.56,0.56c0,0.33,0.22,0.56,0.56,0.56h6.92c0.33,0,0.56-0.22,0.56-0.56
		C29.03,16.69,28.75,16.41,28.47,16.41z"/>
	<path class="st0" d="M8.21,15.85c-3.13,0-5.69,2.57-5.75,5.69c0,3.13,2.57,5.69,5.69,5.75c3.13,0.06,5.69-2.57,5.75-5.69
		C13.95,18.48,11.33,15.85,8.21,15.85L8.21,15.85z M8.15,26.12c-2.51,0-4.58-2.07-4.58-4.63s2.07-4.58,4.63-4.58
		s4.58,2.07,4.58,4.63C12.78,24.11,10.72,26.18,8.15,26.12L8.15,26.12z"/>
	<path class="st0" d="M35.17,14.29h-0.5v-1.17c0-1.67-1.34-3.01-3.01-3.01h-1.51V4.24C30.14,1.9,28.02,0,25.4,0
		c-0.28,0-0.56,0.22-0.56,0.5l-0.11,1.79c-0.11,1.12,2.46,0.06,2.46,2.96v4.86h-5.53l-6.14-7.65c-0.84-1.06-2.12-1.67-3.46-1.67H2.9
		C2.57,0.78,2.34,1,2.34,1.34v14.51C0.89,17.3,0,19.31,0,21.55c0,4.52,3.68,8.26,8.26,8.26c3.85,0,7.15-2.62,8.04-6.31h7.37v0.11
		c0,2.68,2.18,4.8,4.8,4.86c2.62,0.06,4.8-2.18,4.86-4.8v-0.22c0.78-0.28,1.4-1,1.4-1.9v-2.96h0.5c0.33,0,0.56-0.22,0.56-0.56V14.9
		C35.72,14.57,35.5,14.29,35.17,14.29L35.17,14.29z M34.61,17.42h-1.23c-0.56,0-1-0.45-1-1s0.45-1,1-1h1.23V17.42z M25.84,1.84
		l0.06-0.73c1.73,0.22,3.13,1.51,3.13,3.07v5.86H28.3V5.19C28.3,3.57,27.24,2.18,25.84,1.84L25.84,1.84z M14.62,3.18l5.58,6.98H9.94
		V1.95h2.12C13.06,1.9,14.01,2.4,14.62,3.18L14.62,3.18z M3.46,1.9h5.41v8.21H3.46L3.46,1.9z M19.03,11.22
		c-0.45,0.5-0.67,1.17-0.67,1.9v4.47c0,0.61-0.5,1.12-1.12,1.12h-1.28c-1.17-3.24-4.24-5.36-7.7-5.36c-1.79,0-3.46,0.61-4.86,1.56
		v-3.68L19.03,11.22z M8.26,28.69c-3.96,0-7.15-3.24-7.15-7.15s3.24-7.15,7.15-7.15c3.13,0,5.86,2.01,6.81,4.97
		c0.22,0.73,0.33,1.4,0.33,2.18c0,0.45-0.06,0.89-0.11,1.28C14.63,26.23,11.67,28.69,8.26,28.69L8.26,28.69z M28.47,27.35
		c-2.07,0-3.68-1.67-3.68-3.74s1.67-3.68,3.74-3.68s3.68,1.67,3.68,3.74C32.15,25.68,30.48,27.35,28.47,27.35L28.47,27.35z
		 M33.55,21.55c0,0.33-0.17,0.61-0.45,0.78c-0.56-2.01-2.46-3.46-4.63-3.46c-2.23,0-4.13,1.51-4.63,3.57h-7.37
		c0-0.28,0.06-0.56,0.06-0.84c0-0.61-0.06-1.17-0.17-1.79h0.95c1.23,0,2.23-1,2.23-2.23v-4.47c0-1.06,0.84-1.9,1.9-1.9h10.27
		c1.06,0,1.9,0.84,1.9,1.9v1.17h-0.17c-1.17,0-2.12,0.95-2.12,2.12s0.95,2.12,2.12,2.12h0.17L33.55,21.55z"/>
</g>
</svg>
