<?xml version="1.0" encoding="utf-8"?>
<!-- Generator: Adobe Illustrator 24.0.2, SVG Export Plug-In . SVG Version: 6.00 Build 0)  -->
<svg version="1.1" id="Layer_1" xmlns="http://www.w3.org/2000/svg" xmlns:xlink="http://www.w3.org/1999/xlink" x="0px" y="0px"
	 viewBox="0 0 57.54 59.33" style="enable-background:new 0 0 57.54 59.33;" xml:space="preserve">
<style type="text/css">
	.st0{fill:#373737;}
</style>
<g>
	<path class="st0" d="M0.4,41.2c0.25,0.17,0.57,0.2,0.84,0.08l22.81-9.44c0.82,15.74,0.96,19.42,1.07,19.96l-5.85,4.1v0
		c-0.24,0.17-0.38,0.44-0.38,0.74v1.8c0,0.27,0.12,0.52,0.33,0.69c0.21,0.17,0.48,0.24,0.74,0.19l8.81-1.76l8.81,1.76v0
		c0.26,0.05,0.54-0.02,0.74-0.19c0.21-0.17,0.33-0.42,0.33-0.69v-1.8c0-0.29-0.14-0.57-0.38-0.74l-5.85-4.1
		c0.13-0.71,0,0.48,0.62-11.35h6.51c0.24,0,0.47-0.09,0.64-0.26c0.17-0.17,0.26-0.4,0.26-0.64v-4.82l15.84,6.55h0
		c0.28,0.11,0.59,0.08,0.84-0.09c0.25-0.17,0.4-0.44,0.4-0.74v-4.5c0-0.3-0.15-0.57-0.39-0.74l-4.11-2.83l0-3.62
		c0.06-1.59-1.37-2.69-2.78-2.69c-1.45,0-2.56,1.21-2.61,2.59l-2.71-1.87v-4.33c0.12-3.39-5.69-3.94-5.39,0.61l-5.43-3.74
		l0.66-13.01c0-0.02,0-0.12,0-0.13c0.23-5.44-6.7-8.33-10.39-4.33h0c-1.15,1.2-1.75,2.81-1.66,4.47l0.66,13.01l-5.43,3.74
		c0.06-0.9-0.1-1.89-0.79-2.51c-1.58-1.72-4.68-0.45-4.61,1.9v4.33l-2.71,1.87c-0.02-0.68-0.29-1.32-0.78-1.8
		c-1.59-1.72-4.68-0.45-4.61,1.9v3.62l-4.11,2.83C0.15,35.38,0,35.66,0,35.96v4.5C0,40.75,0.15,41.03,0.4,41.2L0.4,41.2z
		 M36.86,57.1v0.23l-7.92-1.58c-0.12-0.02-0.24-0.02-0.35,0l-7.92,1.58V57.1l5.21-3.65c1.36,1.85,4.43,1.78,5.77,0L36.86,57.1z
		 M38.66,38.65h-8.99v-9.89h1.8v3.6c-0.02,0.68,0.81,1.14,1.38,0.76l1.32-0.83l1.32,0.83c0.57,0.38,1.4-0.08,1.38-0.76l0-3.6h1.8
		L38.66,38.65z M33.27,28.76h1.8v1.97c-0.25-0.15-0.59-0.42-0.9-0.4c-0.3-0.02-0.65,0.25-0.9,0.4V28.76z M49.45,28.76
		c0-1.21,1.84-1.14,1.8,0v2.38l-1.8-1.24V28.76z M41.36,22.47c0-1.21,1.84-1.14,1.8,0v3.09l-1.8-1.24V22.47z M55.74,36.43v2.68
		l-15.29-6.32v-4.92c0-0.24-0.09-0.47-0.26-0.64c-0.17-0.17-0.4-0.26-0.64-0.26c-1.37,0-4.47,0-5.81,0l0.28-5.52L55.74,36.43z
		 M25.71,3.11c2.55-2.77,7.38-0.83,7.29,3c0,0.06-0.01,0.12,0,0.13l-1.05,20.73h-3.17c-0.24,0-0.47,0.09-0.64,0.26
		c-0.17,0.17-0.26,0.4-0.26,0.64v11.69c0,0.24,0.09,0.47,0.26,0.64c0.17,0.17,0.4,0.26,0.64,0.26h2.48l-0.54,10.75
		c-0.04,2.3-3.75,2.52-3.87-0.01L24.54,6.24v0C24.48,5.08,24.91,3.94,25.71,3.11L25.71,3.11z M14.39,22.47
		c-0.02-0.78,1.01-1.21,1.54-0.62c0.44,0.31,0.2,1.77,0.26,2.48l-1.8,1.24L14.39,22.47z M6.29,28.76c-0.02-0.78,1.01-1.21,1.54-0.62
		c0.41,0.32,0.22,1.32,0.26,1.76l-1.8,1.24L6.29,28.76z M1.8,36.43l21.72-14.98l0.43,8.49L1.8,39.11L1.8,36.43z"/>
	<path class="st0" d="M3.6,42.25v6.29c0,1.17,1.79,1.18,1.8,0v-6.29C5.39,41.08,3.6,41.07,3.6,42.25z"/>
	<path class="st0" d="M8.09,40.45v6.29c0,1.17,1.79,1.18,1.8,0v-6.29C9.89,39.28,8.1,39.27,8.09,40.45z"/>
	<path class="st0" d="M12.59,38.65v6.29c0,1.17,1.79,1.18,1.8,0v-6.29C14.38,37.48,12.59,37.48,12.59,38.65z"/>
	<path class="st0" d="M18.88,36.86c0-1.17-1.79-1.18-1.8,0v6.29c0,1.17,1.79,1.18,1.8,0V36.86z"/>
	<path class="st0" d="M52.15,42.25v6.29c0,1.17,1.79,1.18,1.8,0v-6.29C53.94,41.08,52.15,41.07,52.15,42.25z"/>
	<path class="st0" d="M47.65,40.45v6.29c0,1.17,1.79,1.18,1.8,0v-6.29C49.45,39.28,47.66,39.27,47.65,40.45z"/>
	<path class="st0" d="M43.16,38.65v6.29c0,1.17,1.79,1.18,1.8,0v-6.29C44.95,37.48,43.16,37.48,43.16,38.65z"/>
	<path class="st0" d="M39.56,41.35c-0.24,0-0.47,0.09-0.64,0.26c-0.17,0.17-0.26,0.4-0.26,0.64l0,0.9c0,0.5,0.4,0.9,0.9,0.9
		c0.5,0,0.9-0.4,0.9-0.9l0-0.9C40.46,41.75,40.06,41.35,39.56,41.35L39.56,41.35z"/>
	<path class="st0" d="M35.06,35.06h-1.8c-0.5,0-0.9,0.4-0.9,0.9c0,0.5,0.4,0.9,0.9,0.9h1.8C36.24,36.85,36.24,35.06,35.06,35.06
		L35.06,35.06z"/>
</g>
</svg>
