<?xml version="1.0" encoding="utf-8"?>
<!-- Generator: Adobe Illustrator 24.0.2, SVG Export Plug-In . SVG Version: 6.00 Build 0)  -->
<svg version="1.1" id="Layer_1" xmlns="http://www.w3.org/2000/svg" xmlns:xlink="http://www.w3.org/1999/xlink" x="0px" y="0px"
	 viewBox="0 0 74.6 26.88" style="enable-background:new 0 0 74.6 26.88;" xml:space="preserve">
<style type="text/css">
	.st0{fill:#575756;}
	.st1{fill:#E30613;}
</style>
<g>
	<g>
		<g>
			<path class="st0" d="M12.26,12.57h9.59v2.97h-6.02v1.45h5.47v2.76h-5.47v1.44h6.2v2.97h-9.77V12.57z"/>
			<path class="st1" d="M24.91,19.73l-2.65-3.99h3.54l0.92,1.67l0.94-1.67h3.44l-2.65,3.99l2.99,4.43h-3.54l-1.23-2.06l-1.18,2.06
				h-3.52L24.91,19.73z"/>
			<path class="st0" d="M31.54,15.73h3.1v0.93h0.03c0.41-0.54,0.89-1.14,2.47-1.14c2.39,0,3.54,2.35,3.54,4.46
				c0,1.98-0.76,4.38-3.59,4.38c-0.96,0-1.82-0.42-2.3-1.14h-0.03v3.65h-3.21V15.73z M36.05,22.03c1.15,0,1.41-1.09,1.41-2.08
				c0-1.01-0.26-2.09-1.41-2.09c-1.15,0-1.41,1.09-1.41,2.09C34.64,20.94,34.9,22.03,36.05,22.03z"/>
			<path class="st0" d="M41.49,15.73h3.08v1.35h0.03c0.52-1.01,1.2-1.56,2.37-1.56c0.33,0,0.63,0.05,0.94,0.13v2.84
				c-0.32-0.11-0.62-0.21-1.27-0.21c-1.27,0-1.95,0.75-1.95,2.55v3.33h-3.21V15.73z"/>
			<path class="st0" d="M50.88,20.67c0.08,0.96,0.63,1.64,1.64,1.64c0.52,0,1.09-0.2,1.35-0.6h3c-0.65,1.82-2.42,2.66-4.33,2.66
				c-2.7,0-4.72-1.59-4.72-4.4c0-2.45,1.79-4.45,4.45-4.45c3.34,0,4.79,1.87,4.79,5.15H50.88z M53.96,18.99
				c0-0.78-0.58-1.41-1.41-1.41c-0.96,0-1.51,0.5-1.66,1.41H53.96z"/>
			<path class="st0" d="M62.7,18.18c-0.02-0.28-0.16-0.49-0.37-0.63c-0.2-0.16-0.46-0.24-0.71-0.24c-0.45,0-0.97,0.1-0.97,0.65
				c0,0.24,0.19,0.36,0.37,0.44c0.54,0.23,1.75,0.29,2.83,0.65c1.07,0.34,2.01,0.97,2.01,2.35c0,2.34-2.24,2.97-4.29,2.97
				c-1.98,0-4.16-0.8-4.21-2.97h3.07c0.02,0.29,0.15,0.54,0.39,0.75c0.16,0.15,0.47,0.24,0.86,0.24c0.42,0,1.09-0.16,1.09-0.65
				c0-0.49-0.28-0.63-1.77-0.89c-2.45-0.42-3.44-1.2-3.44-2.65c0-2.13,2.29-2.68,3.98-2.68c1.82,0,4.01,0.5,4.09,2.66H62.7z"/>
			<path class="st0" d="M71.45,18.18c-0.02-0.28-0.16-0.49-0.37-0.63c-0.2-0.16-0.46-0.24-0.71-0.24c-0.45,0-0.97,0.1-0.97,0.65
				c0,0.24,0.19,0.36,0.37,0.44c0.54,0.23,1.75,0.29,2.83,0.65c1.07,0.34,2.01,0.97,2.01,2.35c0,2.34-2.24,2.97-4.29,2.97
				c-1.98,0-4.16-0.8-4.2-2.97h3.07c0.02,0.29,0.15,0.54,0.39,0.75c0.16,0.15,0.47,0.24,0.86,0.24c0.42,0,1.09-0.16,1.09-0.65
				c0-0.49-0.28-0.63-1.77-0.89c-2.45-0.42-3.44-1.2-3.44-2.65c0-2.13,2.29-2.68,3.98-2.68c1.82,0,4.01,0.5,4.09,2.66H71.45z"/>
		</g>
		<g>
			<g>
				<path class="st0" d="M0,0h5.86c3.86,0,5.23,2.86,5.23,5.78c0,3.56-1.88,5.81-5.93,5.81H0V0z M3.57,8.62h1.4
					c2.22,0,2.55-1.8,2.55-2.89c0-0.73-0.23-2.76-2.81-2.76H3.57V8.62z"/>
				<path class="st0" d="M16.25,11.8c-3.17,0-4.59-2.09-4.59-4.43s1.43-4.42,4.59-4.42s4.59,2.08,4.59,4.42S19.42,11.8,16.25,11.8z
					 M16.25,5.29c-1.22,0-1.38,1.19-1.38,2.08s0.16,2.09,1.38,2.09s1.38-1.2,1.38-2.09S17.47,5.29,16.25,5.29z"/>
				<path class="st0" d="M21.66,3.17h3.1v1.12h0.03c0.65-0.97,1.59-1.33,2.76-1.33c0.91,0,1.88,0.47,2.27,1.31
					c0.13-0.1,0.78-1.31,2.87-1.31c2.16,0,2.89,1.49,2.89,2.86v5.78h-3.21V7.03c0-0.8-0.08-1.51-1.06-1.51
					c-0.81,0-1.09,0.63-1.09,1.51v4.56h-3.21V7.03c0-0.8-0.08-1.51-1.05-1.51c-0.81,0-1.09,0.63-1.09,1.51v4.56h-3.21V3.17z"/>
				<path class="st0" d="M39.46,8.1c0.08,0.96,0.63,1.64,1.64,1.64c0.52,0,1.09-0.19,1.35-0.6h3c-0.65,1.82-2.42,2.66-4.33,2.66
					c-2.7,0-4.72-1.59-4.72-4.4c0-2.45,1.79-4.45,4.45-4.45c3.34,0,4.79,1.87,4.79,5.15H39.46z M42.54,6.43
					c0-0.78-0.58-1.41-1.41-1.41c-0.96,0-1.51,0.5-1.66,1.41H42.54z"/>
				<path class="st0" d="M51.28,5.62c-0.02-0.28-0.16-0.49-0.37-0.63c-0.2-0.16-0.46-0.24-0.71-0.24c-0.45,0-0.97,0.1-0.97,0.65
					c0,0.24,0.19,0.36,0.37,0.44c0.54,0.23,1.75,0.29,2.83,0.65c1.07,0.34,2.01,0.97,2.01,2.35c0,2.34-2.24,2.97-4.29,2.97
					c-1.98,0-4.16-0.8-4.2-2.97h3.07c0.02,0.29,0.15,0.54,0.39,0.75c0.16,0.15,0.47,0.24,0.86,0.24c0.42,0,1.09-0.16,1.09-0.65
					c0-0.49-0.28-0.63-1.77-0.89c-2.45-0.42-3.44-1.2-3.44-2.65c0-2.13,2.29-2.68,3.98-2.68c1.82,0,4.01,0.5,4.09,2.66H51.28z"/>
				<path class="st0" d="M59.03,3.17h1.72v1.98h-1.72v2.94c0,0.78,0.18,1.12,0.99,1.12c0.24,0,0.49-0.02,0.73-0.05v2.44
					c-0.65,0-1.38,0.1-2.06,0.1c-1.36,0-2.87-0.21-2.87-2.52V5.15h-1.43V3.17h1.43V0.6h3.21V3.17z"/>
				<path class="st0" d="M64.48,2.26h-3.21V0h3.21V2.26z M61.27,3.17h3.21v8.43h-3.21V3.17z"/>
				<path class="st0" d="M71.19,6.36c-0.03-0.34-0.15-0.62-0.36-0.8c-0.19-0.18-0.47-0.28-0.81-0.28c-1.23,0-1.41,1.07-1.41,2.09
					s0.18,2.08,1.41,2.08c0.7,0,1.19-0.57,1.25-1.23h3.07c-0.15,1.14-0.68,2.03-1.46,2.65c-0.76,0.6-1.79,0.93-2.92,0.93
					c-2.53,0-4.56-1.75-4.56-4.42s2.03-4.43,4.56-4.43c2.21,0,4.09,1.09,4.29,3.41H71.19z"/>
			</g>
		</g>
	</g>
	<rect x="61.27" class="st1" width="3.21" height="2.26"/>
</g>
</svg>
