<?xml version="1.0" encoding="utf-8"?>
<!-- Generator: Adobe Illustrator 24.0.2, SVG Export Plug-In . SVG Version: 6.00 Build 0)  -->
<svg version="1.1" id="Layer_1" xmlns="http://www.w3.org/2000/svg" xmlns:xlink="http://www.w3.org/1999/xlink" x="0px" y="0px"
	 viewBox="0 0 70.66 24.43" style="enable-background:new 0 0 70.66 24.43;" xml:space="preserve">
<style type="text/css">
	.st0{fill:#575756;}
	.st1{fill:#E30613;}
</style>
<g>
	<g>
		<g>
			<path class="st0" d="M6.13,20.26c0,0.29,0.05,0.55,0.13,0.76c0.26,0.7,1.04,0.84,1.71,0.84c0.58,0,1.48-0.19,1.48-1.06
				c0-0.6-0.5-0.76-2.5-1.33c-1.83-0.52-3.93-1.02-3.93-3.36c0-2.68,2.29-3.83,4.68-3.83c2.52,0,4.74,0.96,4.84,3.78H9.15
				c0.07-0.44-0.13-0.73-0.42-0.93c-0.29-0.21-0.7-0.29-1.06-0.29c-0.49,0-1.28,0.13-1.28,0.78c0.06,0.83,1.72,1.01,3.36,1.46
				c1.64,0.46,3.26,1.22,3.26,3.34c0,3.02-2.78,3.99-5.36,3.99c-1.32,0-5.07-0.47-5.1-4.17H6.13z"/>
			<path class="st0" d="M16.21,20.67c0.08,0.96,0.63,1.64,1.64,1.64c0.52,0,1.09-0.2,1.35-0.6h3c-0.65,1.82-2.42,2.66-4.33,2.66
				c-2.7,0-4.72-1.59-4.72-4.4c0-2.45,1.79-4.45,4.45-4.45c3.34,0,4.79,1.87,4.79,5.15H16.21z M19.3,18.99
				c0-0.78-0.58-1.41-1.41-1.41c-0.96,0-1.51,0.5-1.66,1.41H19.3z"/>
			<path class="st0" d="M23.16,15.73h3.08v1.35h0.03c0.52-1.01,1.2-1.56,2.37-1.56c0.33,0,0.63,0.05,0.94,0.13v2.84
				c-0.32-0.11-0.62-0.21-1.27-0.21c-1.27,0-1.95,0.75-1.95,2.55v3.33h-3.21V15.73z"/>
			<path class="st0" d="M36.14,24.16h-3.8l-2.76-8.43h3.39l1.32,5.13h0.03l1.33-5.13h3.28L36.14,24.16z"/>
			<path class="st0" d="M42.36,14.82h-3.21v-2.26h3.21V14.82z M39.14,15.73h3.21v8.43h-3.21V15.73z"/>
			<path class="st0" d="M49.06,18.93c-0.03-0.34-0.15-0.62-0.36-0.8c-0.19-0.18-0.47-0.28-0.81-0.28c-1.23,0-1.41,1.07-1.41,2.09
				c0,1.02,0.18,2.08,1.41,2.08c0.7,0,1.19-0.57,1.25-1.23h3.07c-0.15,1.14-0.68,2.03-1.46,2.65c-0.76,0.6-1.79,0.92-2.92,0.92
				c-2.53,0-4.56-1.75-4.56-4.42c0-2.66,2.03-4.43,4.56-4.43c2.21,0,4.09,1.09,4.29,3.41H49.06z"/>
			<path class="st0" d="M55.69,20.67c0.08,0.96,0.63,1.64,1.64,1.64c0.52,0,1.09-0.2,1.35-0.6h3c-0.65,1.82-2.42,2.66-4.33,2.66
				c-2.7,0-4.72-1.59-4.72-4.4c0-2.45,1.79-4.45,4.45-4.45c3.34,0,4.79,1.87,4.79,5.15H55.69z M58.77,18.99
				c0-0.78-0.58-1.41-1.41-1.41c-0.96,0-1.51,0.5-1.66,1.41H58.77z"/>
			<path class="st0" d="M67.51,18.18c-0.02-0.28-0.16-0.49-0.37-0.63c-0.2-0.16-0.46-0.24-0.71-0.24c-0.45,0-0.97,0.1-0.97,0.65
				c0,0.24,0.19,0.36,0.37,0.44c0.54,0.23,1.75,0.29,2.83,0.65c1.07,0.34,2.01,0.97,2.01,2.35c0,2.34-2.24,2.97-4.29,2.97
				c-1.98,0-4.16-0.79-4.21-2.97h3.07c0.02,0.29,0.15,0.54,0.39,0.75c0.16,0.15,0.47,0.24,0.86,0.24c0.42,0,1.09-0.16,1.09-0.65
				s-0.28-0.63-1.77-0.89c-2.45-0.42-3.44-1.2-3.44-2.65c0-2.13,2.29-2.68,3.98-2.68c1.82,0,4.01,0.5,4.09,2.66H67.51z"/>
		</g>
		<g>
			<g>
				<path class="st0" d="M0,0h8.96v2.97H3.57v1.45H8.2v2.76H3.57v4.42H0V0z"/>
				<path class="st0" d="M12.89,2.26H9.68V0h3.21V2.26z M9.68,3.17h3.21v8.43H9.68V3.17z"/>
				<path class="st0" d="M14.16,3.17h3.1v1.07h0.03c0.6-0.84,1.46-1.28,2.74-1.28c1.51,0,2.89,0.92,2.89,2.86v5.78h-3.21V7.18
					c0-0.97-0.11-1.66-1.05-1.66c-0.55,0-1.28,0.28-1.28,1.62v4.45h-3.21V3.17z"/>
				<path class="st0" d="M32.33,9.71c0,0.63,0.03,1.35,0.39,1.88h-3.28c-0.08-0.23-0.13-0.57-0.11-0.79h-0.03
					c-0.68,0.78-1.67,1.01-2.71,1.01c-1.62,0-2.97-0.78-2.97-2.55c0-2.66,3.12-2.56,4.76-2.87c0.44-0.08,0.88-0.21,0.88-0.75
					c0-0.57-0.54-0.78-1.05-0.78c-0.99,0-1.19,0.5-1.2,0.86H24c0.05-1.19,0.63-1.88,1.46-2.27c0.81-0.39,1.88-0.49,2.87-0.49
					c4.03,0,3.99,1.67,3.99,3.3V9.71z M29.24,7.81C28.85,8,28.42,8.12,27.98,8.21c-0.71,0.16-1.09,0.34-1.09,0.91
					c0,0.39,0.42,0.78,1.01,0.78c0.73,0,1.3-0.44,1.35-1.31V7.81z"/>
				<path class="st0" d="M33.47,3.17h3.1v1.07h0.03c0.6-0.84,1.46-1.28,2.74-1.28c1.51,0,2.89,0.92,2.89,2.86v5.78h-3.21V7.18
					c0-0.97-0.11-1.66-1.06-1.66c-0.55,0-1.28,0.28-1.28,1.62v4.45h-3.21V3.17z"/>
				<path class="st0" d="M48.86,6.36c-0.03-0.34-0.15-0.62-0.36-0.8c-0.19-0.18-0.47-0.28-0.81-0.28c-1.23,0-1.41,1.07-1.41,2.09
					c0,1.02,0.18,2.08,1.41,2.08c0.7,0,1.19-0.57,1.25-1.23h3.07c-0.15,1.14-0.68,2.03-1.46,2.65c-0.76,0.6-1.79,0.92-2.92,0.92
					c-2.53,0-4.56-1.75-4.56-4.42c0-2.66,2.03-4.43,4.56-4.43c2.21,0,4.09,1.09,4.29,3.41H48.86z"/>
				<path class="st0" d="M56.05,2.26h-3.21V0h3.21V2.26z M52.84,3.17h3.21v8.43h-3.21V3.17z"/>
				<path class="st0" d="M65.54,9.71c0,0.63,0.03,1.35,0.39,1.88h-3.28c-0.08-0.23-0.13-0.57-0.11-0.79H62.5
					c-0.68,0.78-1.67,1.01-2.71,1.01c-1.62,0-2.97-0.78-2.97-2.55c0-2.66,3.12-2.56,4.76-2.87c0.44-0.08,0.88-0.21,0.88-0.75
					c0-0.57-0.54-0.78-1.05-0.78c-0.99,0-1.19,0.5-1.2,0.86h-2.99c0.05-1.19,0.63-1.88,1.46-2.27c0.81-0.39,1.88-0.49,2.87-0.49
					c4.03,0,3.99,1.67,3.99,3.3V9.71z M62.45,7.81C62.06,8,61.62,8.12,61.19,8.21c-0.71,0.16-1.09,0.34-1.09,0.91
					c0,0.39,0.42,0.78,1.01,0.78c0.73,0,1.3-0.44,1.35-1.31V7.81z"/>
				<path class="st0" d="M66.74,0h3.21v11.59h-3.21V0z"/>
			</g>
		</g>
	</g>
	<rect x="52.88" y="0" class="st1" width="3.21" height="2.26"/>
	<rect x="39.11" y="12.53" class="st1" width="3.21" height="2.26"/>
	<rect x="9.68" y="0" class="st1" width="3.21" height="2.26"/>
</g>
</svg>
