<?xml version="1.0" encoding="utf-8"?>
<!-- Generator: Adobe Illustrator 24.0.2, SVG Export Plug-In . SVG Version: 6.00 Build 0)  -->
<svg version="1.1" id="Layer_1" xmlns="http://www.w3.org/2000/svg" xmlns:xlink="http://www.w3.org/1999/xlink" x="0px" y="0px"
	 viewBox="0 0 99.95 26.89" style="enable-background:new 0 0 99.95 26.89;" xml:space="preserve">
<style type="text/css">
	.st0{fill:#575756;}
	.st1{fill:#E30613;}
</style>
<g>
	<g>
		<g>
			<path class="st0" d="M37.61,12.57h9.59v2.97h-6.02v1.45h5.47v2.76h-5.47v1.44h6.2v2.97h-9.77V12.57z"/>
			<path class="st1" d="M50.26,19.73l-2.65-3.99h3.54l0.92,1.67l0.94-1.67h3.44l-2.65,3.99l2.99,4.43h-3.54l-1.23-2.06l-1.18,2.06
				h-3.52L50.26,19.73z"/>
			<path class="st0" d="M56.89,15.73h3.1v0.93h0.03c0.41-0.54,0.89-1.14,2.47-1.14c2.39,0,3.54,2.35,3.54,4.46
				c0,1.98-0.76,4.38-3.59,4.38c-0.96,0-1.82-0.42-2.3-1.14H60.1v3.65h-3.21V15.73z M61.4,22.03c1.15,0,1.41-1.09,1.41-2.08
				c0-1.01-0.26-2.09-1.41-2.09c-1.15,0-1.41,1.09-1.41,2.09C59.99,20.94,60.25,22.03,61.4,22.03z"/>
			<path class="st0" d="M66.84,15.73h3.08v1.35h0.03c0.52-1.01,1.2-1.56,2.37-1.56c0.33,0,0.63,0.05,0.94,0.13v2.84
				c-0.32-0.11-0.62-0.21-1.27-0.21c-1.27,0-1.95,0.75-1.95,2.55v3.33h-3.21V15.73z"/>
			<path class="st0" d="M76.23,20.67c0.08,0.96,0.63,1.64,1.64,1.64c0.52,0,1.09-0.2,1.35-0.6h3c-0.65,1.82-2.42,2.66-4.33,2.66
				c-2.7,0-4.72-1.59-4.72-4.4c0-2.45,1.79-4.45,4.45-4.45c3.34,0,4.79,1.87,4.79,5.15H76.23z M79.31,18.99
				c0-0.78-0.58-1.41-1.41-1.41c-0.96,0-1.51,0.5-1.66,1.41H79.31z"/>
			<path class="st0" d="M88.05,18.18c-0.02-0.28-0.16-0.49-0.37-0.63c-0.2-0.16-0.46-0.24-0.71-0.24c-0.45,0-0.97,0.1-0.97,0.65
				c0,0.24,0.19,0.36,0.37,0.44c0.54,0.23,1.75,0.29,2.83,0.65c1.07,0.34,2.01,0.97,2.01,2.35c0,2.34-2.24,2.97-4.29,2.97
				c-1.98,0-4.16-0.8-4.21-2.97h3.07c0.02,0.29,0.15,0.54,0.39,0.75c0.16,0.15,0.47,0.24,0.86,0.24c0.42,0,1.09-0.16,1.09-0.65
				c0-0.49-0.28-0.63-1.77-0.89c-2.45-0.42-3.44-1.2-3.44-2.65c0-2.13,2.29-2.68,3.98-2.68c1.82,0,4.01,0.5,4.09,2.66H88.05z"/>
			<path class="st0" d="M96.8,18.18c-0.02-0.28-0.16-0.49-0.37-0.63c-0.2-0.16-0.46-0.24-0.71-0.24c-0.45,0-0.97,0.1-0.97,0.65
				c0,0.24,0.19,0.36,0.37,0.44c0.54,0.23,1.75,0.29,2.83,0.65c1.07,0.34,2.01,0.97,2.01,2.35c0,2.34-2.24,2.97-4.29,2.97
				c-1.98,0-4.16-0.8-4.2-2.97h3.07c0.02,0.29,0.15,0.54,0.39,0.75c0.16,0.15,0.47,0.24,0.86,0.24c0.42,0,1.09-0.16,1.09-0.65
				c0-0.49-0.28-0.63-1.77-0.89c-2.45-0.42-3.44-1.2-3.44-2.65c0-2.13,2.29-2.68,3.98-2.68c1.82,0,4.01,0.5,4.09,2.66H96.8z"/>
		</g>
		<g>
			<g>
				<path class="st0" d="M0,0h3.57v11.59H0V0z"/>
				<path class="st0" d="M4.79,3.17h3.1v1.07h0.03c0.6-0.84,1.46-1.28,2.74-1.28c1.51,0,2.89,0.93,2.89,2.86v5.78h-3.21V7.18
					c0-0.97-0.11-1.66-1.06-1.66C8.74,5.52,8,5.8,8,7.14v4.45H4.79V3.17z"/>
				<path class="st0" d="M18.61,3.17h1.72v1.98h-1.72v2.94c0,0.78,0.18,1.12,0.99,1.12c0.24,0,0.49-0.02,0.73-0.05v2.44
					c-0.65,0-1.38,0.1-2.06,0.1c-1.36,0-2.87-0.21-2.87-2.52V5.15h-1.43V3.17h1.43V0.6h3.21V3.17z"/>
				<path class="st0" d="M23.5,8.1c0.08,0.96,0.63,1.64,1.64,1.64c0.52,0,1.09-0.19,1.35-0.6h3c-0.65,1.82-2.42,2.66-4.33,2.66
					c-2.7,0-4.72-1.59-4.72-4.4c0-2.45,1.79-4.45,4.45-4.45c3.34,0,4.79,1.87,4.79,5.15H23.5z M26.58,6.43
					c0-0.78-0.58-1.41-1.41-1.41c-0.96,0-1.51,0.5-1.66,1.41H26.58z"/>
				<path class="st0" d="M30.45,3.17h3.08v1.35h0.03c0.52-1.01,1.2-1.56,2.37-1.56c0.32,0,0.63,0.05,0.94,0.13v2.84
					c-0.32-0.11-0.62-0.21-1.27-0.21c-1.27,0-1.95,0.75-1.95,2.55v3.33h-3.21V3.17z"/>
				<path class="st0" d="M37.38,3.17h3.1v1.07h0.03c0.6-0.84,1.46-1.28,2.74-1.28c1.51,0,2.89,0.93,2.89,2.86v5.78h-3.21V7.18
					c0-0.97-0.11-1.66-1.05-1.66c-0.55,0-1.28,0.28-1.28,1.62v4.45h-3.21V3.17z"/>
				<path class="st0" d="M55.55,9.71c0,0.63,0.03,1.35,0.39,1.88h-3.28c-0.08-0.23-0.13-0.57-0.11-0.8h-0.03
					c-0.68,0.78-1.67,1.01-2.71,1.01c-1.62,0-2.97-0.78-2.97-2.55c0-2.66,3.12-2.56,4.76-2.87c0.44-0.08,0.88-0.21,0.88-0.75
					c0-0.57-0.54-0.78-1.05-0.78c-0.99,0-1.19,0.5-1.2,0.86h-2.99c0.05-1.19,0.63-1.88,1.46-2.27c0.81-0.39,1.88-0.49,2.87-0.49
					c4.03,0,3.99,1.67,3.99,3.3V9.71z M52.47,7.81C52.08,8,51.64,8.12,51.2,8.22c-0.71,0.16-1.09,0.34-1.09,0.91
					c0,0.39,0.42,0.78,1.01,0.78c0.73,0,1.3-0.44,1.35-1.31V7.81z"/>
				<path class="st0" d="M60.55,3.17h1.72v1.98h-1.72v2.94c0,0.78,0.18,1.12,0.99,1.12c0.24,0,0.49-0.02,0.73-0.05v2.44
					c-0.65,0-1.38,0.1-2.06,0.1c-1.36,0-2.87-0.21-2.87-2.52V5.15h-1.43V3.17h1.43V0.6h3.21V3.17z"/>
				<path class="st0" d="M66.01,2.26h-3.21V0h3.21V2.26z M62.79,3.17h3.21v8.43h-3.21V3.17z"/>
				<path class="st0" d="M71.51,11.8c-3.17,0-4.59-2.09-4.59-4.43s1.43-4.42,4.59-4.42s4.59,2.08,4.59,4.42S74.68,11.8,71.51,11.8z
					 M71.51,5.29c-1.22,0-1.38,1.19-1.38,2.08s0.16,2.09,1.38,2.09s1.38-1.2,1.38-2.09S72.73,5.29,71.51,5.29z"/>
				<path class="st0" d="M76.94,3.17h3.1v1.07h0.03c0.6-0.84,1.46-1.28,2.74-1.28c1.51,0,2.89,0.93,2.89,2.86v5.78h-3.21V7.18
					c0-0.97-0.11-1.66-1.06-1.66c-0.55,0-1.28,0.28-1.28,1.62v4.45h-3.21V3.17z"/>
				<path class="st0" d="M95.11,9.71c0,0.63,0.03,1.35,0.39,1.88h-3.28c-0.08-0.23-0.13-0.57-0.11-0.8h-0.03
					c-0.68,0.78-1.67,1.01-2.71,1.01c-1.62,0-2.97-0.78-2.97-2.55c0-2.66,3.12-2.56,4.76-2.87c0.44-0.08,0.88-0.21,0.88-0.75
					c0-0.57-0.54-0.78-1.05-0.78c-0.99,0-1.19,0.5-1.2,0.86h-2.99c0.05-1.19,0.63-1.88,1.46-2.27c0.81-0.39,1.88-0.49,2.87-0.49
					c4.03,0,3.99,1.67,3.99,3.3V9.71z M92.02,7.81C91.63,8,91.19,8.12,90.76,8.22c-0.71,0.16-1.09,0.34-1.09,0.91
					c0,0.39,0.42,0.78,1.01,0.78c0.73,0,1.3-0.44,1.35-1.31V7.81z"/>
				<path class="st0" d="M96.31,0h3.21v11.59h-3.21V0z"/>
			</g>
		</g>
	</g>
	<rect x="62.79" y="0" class="st1" width="3.21" height="2.26"/>
</g>
</svg>
