<?xml version="1.0" encoding="utf-8"?>
<!-- Generator: Adobe Illustrator 24.0.2, SVG Export Plug-In . SVG Version: 6.00 Build 0)  -->
<svg version="1.1" id="Layer_1" xmlns="http://www.w3.org/2000/svg" xmlns:xlink="http://www.w3.org/1999/xlink" x="0px" y="0px"
	 viewBox="0 0 200.81 24.03" style="enable-background:new 0 0 200.81 24.03;" xml:space="preserve">
<style type="text/css">
	.st0{fill:#575756;}
	.st1{fill:#E30613;}
</style>
<g>
	<g>
		<g>
			<path class="st0" d="M6.42,6.42H0V0.55h19.92v5.88h-6.42v17.06H6.42V6.42z"/>
			<path class="st0" d="M18.34,6.81h6.1v2.67h0.06c1.03-1.99,2.38-3.08,4.69-3.08c0.64,0,1.25,0.1,1.86,0.26v5.62
				c-0.64-0.22-1.22-0.42-2.51-0.42c-2.5,0-3.85,1.48-3.85,5.04v6.58h-6.36V6.81z"/>
			<path class="st0" d="M48.38,19.75c0,1.25,0.06,2.67,0.77,3.73h-6.49c-0.16-0.45-0.26-1.12-0.22-1.57h-0.06
				c-1.35,1.54-3.31,1.99-5.36,1.99c-3.21,0-5.88-1.54-5.88-5.04c0-5.27,6.17-5.07,9.41-5.69c0.87-0.16,1.74-0.42,1.74-1.48
				c0-1.12-1.06-1.54-2.09-1.54c-1.96,0-2.34,1-2.38,1.7H31.9c0.1-2.34,1.25-3.73,2.89-4.5c1.61-0.77,3.73-0.96,5.69-0.96
				c7.97,0,7.9,3.31,7.9,6.52V19.75z M42.27,16c-0.77,0.39-1.64,0.61-2.51,0.8c-1.41,0.32-2.15,0.67-2.15,1.8
				c0,0.77,0.84,1.54,1.99,1.54c1.45,0,2.57-0.87,2.67-2.6V16z"/>
			<path class="st0" d="M61.55,23.48h-7.52L48.57,6.81h6.71l2.6,10.15h0.06l2.63-10.15h6.49L61.55,23.48z"/>
			<path class="st0" d="M72.73,16.57c0.16,1.9,1.25,3.24,3.24,3.24c1.03,0,2.15-0.39,2.67-1.19h5.94c-1.28,3.6-4.79,5.27-8.58,5.27
				c-5.33,0-9.35-3.15-9.35-8.7c0-4.85,3.53-8.8,8.8-8.8c6.62,0,9.47,3.69,9.47,10.18H72.73z M78.83,13.27
				c0-1.54-1.16-2.79-2.79-2.79c-1.9,0-2.99,1-3.28,2.79H78.83z"/>
			<path class="st0" d="M86.61,0.55h6.36v22.93h-6.36V0.55z"/>
			<path class="st1" d="M109.25,21.87c-2.09,1.64-4.01,2.15-6.55,2.15c-4.4,0-7.8-2.99-7.8-7.45c0-3.05,2.6-5.17,5.11-6.46
				c-1.06-1.16-1.8-2.57-1.8-4.18c0-3.66,3.4-5.94,6.81-5.94c4.27,0,7.36,1.86,7.36,5.94c0,2.6-2.02,4.75-4.21,5.91l1.77,2.18
				c0.42-0.55,0.74-1.16,0.83-1.73h5.3c-0.32,1.96-1.22,4.02-2.7,5.56l4.69,5.62h-7.52L109.25,21.87z M103.21,14.33
				c-0.93,0.48-2.22,1.32-2.22,2.47c0,1.25,1.09,2.15,2.18,2.15c1.03,0,1.93-0.67,2.7-1.38L103.21,14.33z M105.08,8.19
				c0.9-0.42,1.83-1.32,1.83-2.38c0-0.84-0.64-1.54-1.54-1.54c-0.8,0-1.7,0.58-1.7,1.57C103.66,6.65,104.5,7.52,105.08,8.19z"/>
			<path class="st0" d="M121.04,6.42h-6.42V0.55h19.92v5.88h-6.42v17.06h-7.07V6.42z"/>
			<path class="st0" d="M140.74,23.9c-6.26,0-9.09-4.14-9.09-8.77s2.83-8.74,9.09-8.74c6.26,0,9.09,4.11,9.09,8.74
				S147,23.9,140.74,23.9z M140.74,11.02c-2.41,0-2.73,2.34-2.73,4.11c0,1.77,0.32,4.14,2.73,4.14c2.41,0,2.73-2.38,2.73-4.14
				C143.47,13.36,143.14,11.02,140.74,11.02z"/>
			<path class="st0" d="M168.81,23.48h-6.13v-2.12h-0.06c-1.19,1.67-2.89,2.54-5.43,2.54c-2.99,0-5.72-1.83-5.72-5.65V6.81h6.36
				v8.74c0,1.93,0.23,3.28,2.09,3.28c1.09,0,2.54-0.55,2.54-3.21v-8.8h6.36V23.48z"/>
			<path class="st0" d="M171.16,6.81h6.1v2.67h0.06c1.03-1.99,2.38-3.08,4.69-3.08c0.64,0,1.25,0.1,1.86,0.26v5.62
				c-0.64-0.22-1.22-0.42-2.51-0.42c-2.5,0-3.85,1.48-3.85,5.04v6.58h-6.36V6.81z"/>
			<path class="st0" d="M194.58,11.66c-0.03-0.55-0.32-0.96-0.74-1.25c-0.39-0.32-0.9-0.48-1.41-0.48c-0.9,0-1.93,0.19-1.93,1.28
				c0,0.48,0.39,0.71,0.74,0.87c1.06,0.45,3.47,0.58,5.59,1.28c2.12,0.67,3.98,1.93,3.98,4.66c0,4.63-4.43,5.88-8.48,5.88
				c-3.92,0-8.22-1.57-8.32-5.88h6.07c0.03,0.58,0.29,1.06,0.77,1.48c0.32,0.29,0.93,0.48,1.7,0.48c0.83,0,2.15-0.32,2.15-1.28
				c0-0.96-0.55-1.25-3.5-1.77c-4.85-0.84-6.81-2.38-6.81-5.24c0-4.21,4.53-5.3,7.87-5.3c3.6,0,7.93,1,8.09,5.27H194.58z"/>
		</g>
	</g>
</g>
</svg>
